<?xml version="1.0" encoding="utf-8" standalone="no"?>
<!DOCTYPE svg PUBLIC "-//W3C//DTD SVG 1.1//EN"
  "http://www.w3.org/Graphics/SVG/1.1/DTD/svg11.dtd">
<!-- Created with matplotlib (http://matplotlib.org/) -->
<svg height="360pt" version="1.1" viewBox="0 0 864 360" width="864pt" xmlns="http://www.w3.org/2000/svg" xmlns:xlink="http://www.w3.org/1999/xlink">
 <defs>
  <style type="text/css">
*{stroke-linecap:butt;stroke-linejoin:round;}
  </style>
 </defs>
 <g id="figure_1">
  <g id="axes_1">
   <g id="line2d_1">
    <path clip-path="url(#p43d12f8431)" d="M 432 248.425734 
L 433.272971 233.5134 
L 434.545941 235.643046 
L 435.818912 239.434521 
L 437.091882 261.383377 
L 438.364853 261.187305 
L 439.637823 263.59791 
L 440.910794 267.825281 
L 442.183764 264.919212 
L 443.456735 261.12863 
L 444.729705 269.784709 
L 446.002676 276.93911 
L 447.275646 280.656644 
L 448.548617 274.617007 
L 449.821587 269.653123 
L 451.094558 280.31809 
L 452.367528 289.425202 
L 453.640499 282.990769 
L 454.913469 269.54208 
L 456.18644 269.536816 
L 457.45941 274.99338 
L 458.732381 265.555043 
L 460.005351 267.881467 
L 461.278322 261.539843 
L 462.551292 248.30517 
L 463.824263 242.76454 
L 465.097233 241.883802 
L 466.370204 235.487598 
L 467.643174 240.601977 
L 468.916145 241.827587 
L 470.189115 246.367454 
L 471.462086 247.813105 
L 472.735056 251.620739 
L 474.008027 252.910666 
L 475.280997 255.831185 
L 476.553968 254.820807 
L 477.826938 254.022297 
L 479.099909 251.275767 
L 480.372879 239.26596 
L 481.64585 251.951273 
L 482.91882 240.838575 
L 484.191791 242.559466 
L 485.464761 252.611563 
L 486.737732 253.789674 
L 488.010702 252.755345 
L 489.283673 243.552028 
L 490.556643 252.174881 
L 491.829614 250.089751 
L 493.102584 248.837901 
L 494.375555 262.672293 
L 495.648525 272.334319 
L 496.921496 267.044671 
L 498.194466 260.955764 
L 499.467437 251.583725 
L 500.740407 246.848995 
L 502.013378 243.274741 
L 503.286348 241.980628 
L 504.559319 231.592274 
L 505.832289 238.385214 
L 507.10526 239.307752 
L 508.37823 235.816031 
L 509.651201 248.7578 
L 510.924171 237.516798 
L 512.197142 243.889441 
L 513.470112 244.224713 
L 514.743083 225.903027 
L 516.016054 232.581863 
L 517.289024 236.748474 
L 518.561995 223.408041 
L 519.834965 232.186278 
L 521.107936 235.538146 
L 522.380906 230.95192 
L 523.653877 226.873816 
L 524.926847 221.637884 
L 526.199818 218.270473 
L 527.472788 206.741176 
L 528.745759 197.970005 
L 530.018729 192.720742 
L 532.56467 203.880586 
L 533.837641 219.591861 
L 535.110611 213.572065 
L 536.383582 228.569354 
L 537.656552 220.943745 
L 538.929523 205.220054 
L 540.202493 213.843074 
L 541.475464 219.308328 
L 542.748434 223.029889 
L 544.021405 215.812876 
L 545.294375 222.77566 
L 546.567346 223.603155 
L 547.840316 227.71715 
L 549.113287 229.555474 
L 550.386257 218.479145 
L 551.659228 226.286291 
L 552.932198 225.420066 
L 554.205169 222.880673 
L 555.478139 215.426249 
L 556.75111 225.743977 
L 558.02408 216.144553 
L 559.297051 212.239051 
L 560.570021 204.653973 
L 561.842992 203.788649 
L 563.115962 217.245793 
L 564.388933 222.399749 
L 565.661903 215.287731 
L 566.934874 214.714243 
L 568.207844 214.85656 
L 569.480815 199.591951 
L 570.753785 180.89199 
L 572.026756 180.936891 
L 573.299726 164.488659 
L 575.845667 197.803757 
L 577.118638 190.279107 
L 578.391608 192.206881 
L 579.664579 187.094147 
L 580.937549 182.504 
L 582.21052 182.987078 
L 583.48349 177.010673 
L 584.756461 175.483355 
L 586.029431 188.045427 
L 587.302402 185.947567 
L 588.575372 184.127712 
L 589.848343 168.517785 
L 591.121313 177.703756 
L 592.394284 177.296021 
L 593.667254 180.584018 
L 594.940225 181.431342 
L 596.213196 167.274606 
L 597.486166 163.839092 
L 598.759137 167.463129 
L 600.032107 165.909696 
L 601.305078 159.229762 
L 602.578048 167.286593 
L 603.851019 169.234304 
L 605.123989 156.057085 
L 606.39696 148.623719 
L 607.66993 148.733385 
L 608.942901 152.465618 
L 610.215871 153.490063 
L 611.488842 166.21068 
L 612.761812 158.049898 
L 614.034783 154.928237 
L 615.307753 153.505144 
L 616.580724 164.102078 
L 617.853694 169.822501 
L 619.126665 165.249707 
L 620.399635 162.826603 
L 621.672606 166.71993 
L 622.945576 162.226318 
L 624.218547 154.101143 
L 625.491517 159.487159 
L 626.764488 163.666212 
L 628.037458 170.683495 
L 629.310429 180.090241 
L 630.583399 173.154859 
L 631.85637 168.619335 
L 633.12934 165.518099 
L 634.402311 175.065966 
L 635.675281 183.557653 
L 636.948252 183.858759 
L 638.221222 187.052827 
L 639.494193 185.782029 
L 640.767163 191.368573 
L 642.040134 185.627469 
L 643.313104 170.296309 
L 645.859045 143.338551 
L 647.132016 142.478521 
L 648.404986 134.497414 
L 649.677957 137.386901 
L 650.950927 129.419129 
L 652.223898 132.32195 
L 653.496868 136.150349 
L 654.769839 141.279952 
L 656.042809 135.161126 
L 657.31578 132.589914 
L 658.58875 130.764516 
L 659.861721 140.041839 
L 661.134691 138.589177 
L 662.407662 150.38583 
L 663.680632 137.758638 
L 664.953603 138.594606 
L 666.226573 136.701359 
L 667.499544 137.316263 
L 668.772514 150.312187 
L 670.045485 161.531608 
L 671.318455 161.503263 
L 672.591426 148.742461 
L 673.864396 157.814091 
L 675.137367 163.454571 
L 676.410337 163.584582 
L 678.956279 191.390678 
L 680.229249 194.570047 
L 681.50222 194.683669 
L 682.77519 197.693241 
L 684.048161 184.58289 
L 685.321131 185.692124 
L 686.594102 182.409605 
L 689.140043 154.235426 
L 690.413013 167.277876 
L 691.685984 170.170851 
L 692.958954 160.172612 
L 694.231925 171.451351 
L 695.504895 178.921856 
L 699.323807 209.886861 
L 700.596777 208.140854 
L 701.869748 197.251638 
L 703.142718 184.19319 
L 704.415689 183.828227 
L 705.688659 200.060947 
L 706.96163 200.269656 
L 708.2346 202.844116 
L 709.507571 199.628956 
L 710.780541 200.438632 
L 712.053512 215.210736 
L 713.326482 211.485183 
L 714.599453 228.532219 
L 715.872423 234.044581 
L 717.145394 231.169087 
L 718.418364 227.970292 
L 719.691335 214.549114 
L 720.964305 234.062437 
L 722.237276 230.950565 
L 723.510246 224.913456 
L 724.783217 227.387547 
L 726.056187 221.780343 
L 727.329158 230.741136 
L 728.602128 224.974893 
L 729.875099 220.203378 
L 731.148069 228.15641 
L 732.42104 233.472262 
L 733.69401 234.796086 
L 734.966981 240.023574 
L 736.239951 231.01417 
L 737.512922 229.282188 
L 738.785892 218.009457 
L 740.058863 207.904521 
L 741.331833 207.12966 
L 742.604804 208.48095 
L 743.877774 216.14117 
L 746.423715 229.054503 
L 747.696686 225.876773 
L 748.969656 233.009625 
L 750.242627 232.085643 
L 751.515597 230.207803 
L 752.788568 234.096975 
L 754.061538 235.390663 
L 755.334509 223.024208 
L 756.607479 209.262836 
L 757.88045 215.549815 
L 759.15342 216.913737 
L 760.426391 219.763892 
L 761.699362 221.80725 
L 762.972332 208.689234 
L 764.245303 202.67662 
L 765.518273 191.862836 
L 766.791244 176.720895 
L 768.064214 180.141883 
L 769.337185 181.443799 
L 770.610155 180.840071 
L 771.883126 171.984387 
L 773.156096 172.480812 
L 774.429067 166.808683 
L 776.975008 146.757552 
L 778.247978 142.752404 
L 779.520949 149.090306 
L 780.793919 161.836229 
L 782.06689 152.180185 
L 783.33986 148.091975 
L 784.612831 155.67534 
L 785.885801 159.638539 
L 787.158772 163.130583 
L 788.431742 176.888268 
L 789.704713 174.516824 
L 790.977683 180.840692 
L 792.250654 183.04011 
L 793.523624 176.581706 
L 794.796595 177.116962 
L 796.069565 172.304942 
L 797.342536 168.503187 
L 798.615506 167.972612 
L 799.888477 167.298352 
L 801.161447 151.446996 
L 802.434418 152.610507 
L 803.707388 138.71777 
L 804.980359 146.104594 
L 806.253329 139.732424 
L 807.5263 138.036125 
L 808.79927 143.876204 
L 810.072241 165.776048 
L 811.345211 152.157481 
L 812.618182 161.563723 
L 812.618182 161.563723 
" style="fill:none;stroke:#dd1c77;stroke-linecap:square;stroke-width:1.5;"/>
   </g>
   <g id="line2d_2">
    <path clip-path="url(#p43d12f8431)" d="M 51.381818 161.563723 
L 52.652664 169.497112 
L 53.923509 168.289898 
L 55.194354 167.68909 
L 56.4652 165.23406 
L 57.736045 167.23667 
L 59.00689 179.658546 
L 60.277736 172.282923 
L 61.548581 179.728054 
L 62.819426 177.737348 
L 64.090272 172.809167 
L 65.361117 162.796704 
L 66.631962 164.496703 
L 67.902808 166.928961 
L 69.173653 168.757856 
L 70.444498 184.098956 
L 71.715344 190.290379 
L 72.986189 198.569504 
L 74.257034 208.065601 
L 75.52788 206.539977 
L 76.798725 209.022838 
L 79.340416 182.968445 
L 80.611261 198.592824 
L 81.882107 197.444592 
L 83.152952 205.696784 
L 84.423797 200.921274 
L 85.694643 199.475736 
L 86.965488 191.568883 
L 88.236333 188.845858 
L 89.507179 182.355333 
L 90.778024 184.730135 
L 92.048869 205.588201 
L 93.319715 215.378922 
L 94.59056 222.40784 
L 95.861405 226.385252 
L 97.132251 234.729446 
L 98.403096 220.944612 
L 99.673941 222.228463 
L 100.944787 211.263818 
L 102.215632 213.970743 
L 103.486477 200.009504 
L 104.757323 209.927325 
L 106.028168 204.788176 
L 107.299014 215.790869 
L 108.569859 211.970111 
L 109.840704 198.574069 
L 111.11155 212.12006 
L 112.382395 219.291568 
L 113.65324 217.117205 
L 114.924086 218.549719 
L 116.194931 229.879325 
L 117.465776 220.080481 
L 118.736622 219.520029 
L 120.007467 208.576298 
L 121.278312 205.788112 
L 122.549158 215.313782 
L 123.820003 219.21668 
L 125.090848 207.532221 
L 126.361694 219.002483 
L 127.632539 222.77618 
L 128.903384 217.628966 
L 130.17423 209.015167 
L 131.445075 201.971241 
L 132.71592 214.180528 
L 133.986766 196.604582 
L 135.257611 197.859248 
L 136.528457 197.63407 
L 137.799302 197.536418 
L 139.070147 199.353927 
L 140.340993 207.321146 
L 141.611838 209.933435 
L 142.882683 198.74886 
L 144.153529 210.020758 
L 145.424374 230.244408 
L 146.695219 225.64639 
L 147.966065 222.698954 
L 149.23691 216.487355 
L 150.507755 201.916108 
L 151.778601 207.860543 
L 153.049446 206.255709 
L 154.320291 201.928755 
L 155.591137 191.503057 
L 156.861982 182.798107 
L 158.132827 189.727283 
L 159.403673 201.127657 
L 160.674518 203.285877 
L 161.945363 216.655148 
L 163.216209 207.250675 
L 164.487054 210.430374 
L 165.7579 213.286525 
L 167.028745 220.608756 
L 168.29959 207.741076 
L 169.570436 205.210272 
L 170.841281 208.536777 
L 172.112126 203.299152 
L 173.382972 203.891358 
L 174.653817 198.803762 
L 175.924662 187.648719 
L 177.195508 189.741725 
L 179.737198 181.214274 
L 181.008044 171.603648 
L 182.278889 166.508976 
L 183.549734 166.116086 
L 184.82058 171.371193 
L 186.091425 168.783412 
L 187.36227 177.413848 
L 188.633116 171.816262 
L 189.903961 171.196781 
L 191.174806 166.4823 
L 192.445652 170.708159 
L 193.716497 177.293341 
L 194.987343 184.812335 
L 196.258188 175.4317 
L 198.799879 178.945475 
L 200.070724 193.79366 
L 201.341569 194.148674 
L 202.612415 222.972067 
L 203.88326 211.454212 
L 205.154105 213.353614 
L 206.424951 213.055781 
L 207.695796 224.884035 
L 208.966641 233.928269 
L 210.237487 228.747388 
L 211.508332 230.369044 
L 212.779177 226.655557 
L 214.050023 215.90189 
L 215.320868 210.2309 
L 216.591713 225.993247 
L 217.862559 234.105969 
L 219.133404 243.483804 
L 220.40425 250.973083 
L 222.94594 285.292423 
L 224.216786 291.391618 
L 225.487631 296.27122 
L 226.758476 291.829177 
L 228.029322 294.423048 
L 229.300167 282.409488 
L 230.571012 297.569229 
L 231.841858 309.088497 
L 233.112703 306.880114 
L 234.383548 309.049953 
L 235.654394 317.207309 
L 236.925239 310.661157 
L 238.196084 301.446311 
L 239.46693 290.375759 
L 240.737775 293.605292 
L 242.00862 293.559199 
L 243.279466 291.548322 
L 244.550311 290.963248 
L 245.821156 282.322339 
L 247.092002 286.325219 
L 248.362847 283.124214 
L 249.633693 301.511338 
L 250.904538 295.090302 
L 252.175383 281.269848 
L 253.446229 281.387756 
L 254.717074 272.606654 
L 255.987919 286.404963 
L 257.258765 289.086392 
L 258.52961 301.880017 
L 259.800455 299.105523 
L 261.071301 294.626116 
L 262.342146 305.986354 
L 263.612991 312.962441 
L 264.883837 317.752066 
L 266.154682 297.378073 
L 267.425527 297.881635 
L 268.696373 296.76589 
L 269.967218 293.638529 
L 271.238063 291.037651 
L 272.508909 292.927581 
L 273.779754 303.953148 
L 275.050599 309.526848 
L 276.321445 295.743596 
L 277.59229 293.489708 
L 278.863136 296.493664 
L 280.133981 307.702199 
L 281.404826 308.059613 
L 282.675672 307.684569 
L 283.946517 313.033948 
L 285.217362 305.462471 
L 286.488208 310.277602 
L 287.759053 311.575205 
L 289.029898 304.414153 
L 290.300744 302.426496 
L 291.571589 292.921502 
L 292.842434 294.727152 
L 294.11328 298.232159 
L 295.384125 294.203058 
L 296.65497 292.293253 
L 297.925816 282.259845 
L 299.196661 278.746657 
L 300.467506 278.849588 
L 301.738352 274.971812 
L 303.009197 269.372046 
L 304.280042 278.629532 
L 305.550888 279.706532 
L 306.821733 282.382499 
L 308.092579 272.219917 
L 309.363424 276.155378 
L 310.634269 267.135667 
L 311.905115 277.594879 
L 313.17596 277.936484 
L 314.446805 268.886529 
L 315.717651 270.945503 
L 316.988496 261.181214 
L 318.259341 278.017366 
L 319.530187 277.667205 
L 320.801032 276.195198 
L 322.071877 277.12226 
L 323.342723 289.617516 
L 324.613568 283.922314 
L 325.884413 303.293188 
L 327.155259 295.235821 
L 328.426104 292.672527 
L 329.696949 284.292094 
L 330.967795 286.293055 
L 332.23864 295.46374 
L 333.509486 299.656553 
L 334.780331 303.413692 
L 336.051176 298.282502 
L 337.322022 300.761842 
L 338.592867 297.164717 
L 339.863712 292.983348 
L 341.134558 280.960659 
L 342.405403 297.446263 
L 343.676248 300.67519 
L 346.217939 288.818402 
L 347.488784 293.32042 
L 348.75963 295.337459 
L 350.030475 295.91633 
L 351.30132 294.606882 
L 352.572166 299.093083 
L 353.843011 304.237797 
L 355.113856 313.349519 
L 356.384702 316.28182 
L 357.655547 304.43182 
L 358.926392 312.104379 
L 360.197238 303.785677 
L 361.468083 287.294196 
L 362.738929 285.300918 
L 364.009774 265.271587 
L 365.280619 266.121509 
L 366.551465 251.844117 
L 367.82231 251.883524 
L 369.093155 261.64977 
L 370.364001 258.367626 
L 371.634846 242.208393 
L 372.905691 246.724365 
L 374.176537 242.29447 
L 375.447382 250.19634 
L 376.718227 257.156292 
L 377.989073 252.906553 
L 379.259918 253.996306 
L 380.530763 248.810065 
L 381.801609 237.698278 
L 383.072454 247.078087 
L 384.343299 252.336268 
L 385.614145 251.464375 
L 386.88499 231.582412 
L 388.155835 233.771688 
L 389.426681 237.267811 
L 390.697526 233.054788 
L 391.968372 214.855588 
L 393.239217 219.12448 
L 394.510062 221.067708 
L 395.780908 220.087735 
L 397.051753 213.118031 
L 398.322598 194.21141 
L 399.593444 203.957691 
L 400.864289 217.165794 
L 402.135134 215.141839 
L 403.40598 209.939577 
L 404.676825 227.85083 
L 405.94767 232.217502 
L 407.218516 223.406444 
L 408.489361 227.011096 
L 409.760206 222.152539 
L 411.031052 219.869365 
L 412.301897 213.58506 
L 413.572742 209.104338 
L 414.843588 206.054756 
L 416.114433 194.754411 
L 417.385278 198.555293 
L 418.656124 196.615278 
L 419.926969 186.252625 
L 421.197815 190.006568 
L 422.46866 192.165313 
L 423.739505 197.508537 
L 425.010351 204.400058 
L 426.281196 186.509581 
L 427.552041 181.594177 
L 428.822887 164.908622 
L 430.093732 157.788903 
L 431.364577 156.144143 
L 432.635423 157.493695 
L 433.906268 154.277211 
L 435.177113 153.638329 
L 436.447959 145.005307 
L 437.718804 151.289116 
L 438.989649 148.870981 
L 440.260495 143.993692 
L 442.802185 145.848712 
L 445.343876 134.556317 
L 446.614722 134.414448 
L 447.885567 133.526423 
L 449.156412 137.179528 
L 450.427258 131.538931 
L 451.698103 131.55953 
L 452.968948 143.681104 
L 454.239794 145.322682 
L 455.510639 139.248166 
L 456.781484 135.972362 
L 458.05233 142.485717 
L 459.323175 135.464139 
L 461.864866 123.614939 
L 463.135711 110.045051 
L 464.406556 112.014879 
L 465.677402 106.195179 
L 466.948247 107.573336 
L 468.219092 98.582468 
L 469.489938 88.158434 
L 470.760783 83.364121 
L 472.031628 76.449565 
L 473.302474 82.550118 
L 474.573319 76.685413 
L 475.844165 85.984912 
L 477.11501 67.299575 
L 478.385855 57.068947 
L 479.656701 69.290473 
L 480.927546 90.998529 
L 482.198391 79.633169 
L 483.469237 86.316451 
L 484.740082 81.335957 
L 486.010927 91.775485 
L 487.281773 90.795475 
L 488.552618 95.827864 
L 489.823463 90.480874 
L 491.094309 92.942864 
L 492.365154 80.200781 
L 493.635999 86.228526 
L 494.906845 75.232066 
L 496.17769 75.083162 
L 497.448535 70.450768 
L 498.719381 83.498304 
L 499.990226 97.893251 
L 501.261071 88.856923 
L 502.531917 98.878836 
L 505.073608 103.938705 
L 506.344453 111.254937 
L 507.615298 109.350606 
L 508.886144 120.931267 
L 510.156989 130.667419 
L 511.427834 122.754153 
L 512.69868 129.282209 
L 513.969525 122.892043 
L 515.24037 117.168971 
L 516.511216 104.309241 
L 517.782061 100.335789 
L 519.052906 115.486627 
L 520.323752 120.755293 
L 521.594597 124.038384 
L 522.865442 113.613419 
L 524.136288 110.575847 
L 525.407133 114.509962 
L 526.677978 110.727839 
L 527.948824 113.578607 
L 529.219669 108.858215 
L 530.490514 107.449606 
L 531.76136 98.049998 
L 533.032205 95.12119 
L 534.303051 86.668933 
L 535.573896 86.635854 
L 536.844741 80.555857 
L 538.115587 81.701229 
L 539.386432 76.193542 
L 540.657277 74.196398 
L 541.928123 75.110365 
L 543.198968 78.496596 
L 544.469813 80.663522 
L 545.740659 76.57914 
L 547.011504 95.627726 
L 548.282349 85.125958 
L 549.553195 104.80725 
L 550.82404 106.271013 
L 552.094885 108.904717 
L 553.365731 102.596492 
L 554.636576 100.501369 
L 555.907421 100.739821 
L 557.178267 99.91512 
L 558.449112 91.876677 
L 559.719958 72.170278 
L 560.990803 68.893193 
L 562.261648 85.997285 
L 563.532494 89.381252 
L 564.803339 85.747243 
L 566.074184 57.896191 
L 567.34503 64.176342 
L 568.615875 67.16606 
L 569.88672 62.365249 
L 571.157566 59.538102 
L 572.428411 70.489756 
L 573.699256 62.44411 
L 574.970102 73.33057 
L 576.240947 75.437585 
L 577.511792 64.23277 
L 578.782638 75.142105 
L 580.053483 77.900193 
L 581.324328 63.806408 
L 582.595174 65.863497 
L 583.866019 74.513031 
L 585.136864 79.260122 
L 586.40771 72.140035 
L 587.678555 85.143324 
L 588.949401 90.319738 
L 590.220246 102.401377 
L 591.491091 111.969531 
L 592.761937 101.078372 
L 594.032782 101.662039 
L 595.303627 105.218631 
L 596.574473 101.538789 
L 597.845318 107.403629 
L 599.116163 117.368404 
L 600.387009 107.650591 
L 601.657854 100.182565 
L 602.928699 107.156907 
L 604.199545 101.141852 
L 605.47039 88.80432 
L 608.012081 80.267749 
L 609.282926 90.554651 
L 610.553771 91.56025 
L 611.824617 107.125355 
L 613.095462 97.674894 
L 614.366307 99.013821 
L 615.637153 87.800158 
L 616.907998 94.186699 
L 618.178844 86.731424 
L 619.449689 99.94029 
L 620.720534 103.240067 
L 621.99138 98.545097 
L 623.262225 95.446731 
L 624.53307 95.836432 
L 625.803916 109.581832 
L 627.074761 98.34816 
L 628.345606 92.686255 
L 630.887297 73.398366 
L 632.158142 76.45809 
L 633.428988 73.050075 
L 634.699833 50.651749 
L 635.970678 57.60173 
L 637.241524 54.062472 
L 638.512369 58.680185 
L 639.783214 43.819821 
L 641.05406 42.247934 
L 642.324905 50.915758 
L 643.59575 55.915762 
L 644.866596 67.698562 
L 646.137441 86.848725 
L 647.408287 109.662905 
L 648.679132 115.713277 
L 649.949977 125.174205 
L 651.220823 123.816807 
L 652.491668 130.713477 
L 653.762513 128.719391 
L 653.762513 128.719391 
" style="fill:none;stroke:#c994c7;stroke-linecap:square;stroke-width:1.5;"/>
   </g>
   <g id="line2d_3">
    <defs>
     <path d="M 0 7.5 
C 1.989023 7.5 3.896849 6.709753 5.303301 5.303301 
C 6.709753 3.896849 7.5 1.989023 7.5 0 
C 7.5 -1.989023 6.709753 -3.896849 5.303301 -5.303301 
C 3.896849 -6.709753 1.989023 -7.5 0 -7.5 
C -1.989023 -7.5 -3.896849 -6.709753 -5.303301 -5.303301 
C -6.709753 -3.896849 -7.5 -1.989023 -7.5 0 
C -7.5 1.989023 -6.709753 3.896849 -5.303301 5.303301 
C -3.896849 6.709753 -1.989023 7.5 0 7.5 
z
" id="mff9ee96792" style="stroke:#e7e1ef;"/>
    </defs>
    <g clip-path="url(#p43d12f8431)">
     <use style="fill:#e7e1ef;stroke:#e7e1ef;" x="51.381818" xlink:href="#mff9ee96792" y="161.563723"/>
     <use style="fill:#e7e1ef;stroke:#e7e1ef;" x="432" xlink:href="#mff9ee96792" y="248.425734"/>
     <use style="fill:#e7e1ef;stroke:#e7e1ef;" x="812.618182" xlink:href="#mff9ee96792" y="161.563723"/>
    </g>
   </g>
   <g id="line2d_4">
    <defs>
     <path d="M 0 5 
C 1.326016 5 2.597899 4.473168 3.535534 3.535534 
C 4.473168 2.597899 5 1.326016 5 0 
C 5 -1.326016 4.473168 -2.597899 3.535534 -3.535534 
C 2.597899 -4.473168 1.326016 -5 0 -5 
C -1.326016 -5 -2.597899 -4.473168 -3.535534 -3.535534 
C -4.473168 -2.597899 -5 -1.326016 -5 0 
C -5 1.326016 -4.473168 2.597899 -3.535534 3.535534 
C -2.597899 4.473168 -1.326016 5 0 5 
z
" id="m5acd199f75" style="stroke:#c994c7;"/>
    </defs>
    <g clip-path="url(#p43d12f8431)">
     <use style="fill:#c994c7;stroke:#c994c7;" x="653.762513" xlink:href="#m5acd199f75" y="128.719391"/>
    </g>
   </g>
   <g id="line2d_5">
    <path clip-path="url(#p43d12f8431)" d="M 432 331.527273 
L 432 28.472727 
" style="fill:none;stroke:#ffffff;stroke-dasharray:5.55,2.4;stroke-dashoffset:0;stroke-width:1.5;"/>
   </g>
   <g id="line2d_6">
    <path clip-path="url(#p43d12f8431)" d="M 812.618182 331.527273 
L 812.618182 28.472727 
" style="fill:none;stroke:#ffffff;stroke-dasharray:5.55,2.4;stroke-dashoffset:0;stroke-width:1.5;"/>
   </g>
  </g>
 </g>
 <defs>
  <clipPath id="p43d12f8431">
   <rect height="333.36" width="837.36" x="13.32" y="13.32"/>
  </clipPath>
 </defs>
</svg>
