<?xml version="1.0" encoding="utf-8" standalone="no"?>
<!DOCTYPE svg PUBLIC "-//W3C//DTD SVG 1.1//EN"
  "http://www.w3.org/Graphics/SVG/1.1/DTD/svg11.dtd">
<!-- Created with matplotlib (http://matplotlib.org/) -->
<svg height="360pt" version="1.1" viewBox="0 0 720 360" width="720pt" xmlns="http://www.w3.org/2000/svg" xmlns:xlink="http://www.w3.org/1999/xlink">
 <defs>
  <style type="text/css">
*{stroke-linecap:butt;stroke-linejoin:round;}
  </style>
 </defs>
 <g id="figure_1">
  <g id="axes_1">
   <g id="line2d_1">
    <path clip-path="url(#p5c29ad25e4)" d="M 44.836364 143.954949 
L 46.109752 147.397335 
L 47.38314 150.534928 
L 48.656529 153.907941 
L 49.929917 151.252147 
L 51.203306 149.892618 
L 52.476694 152.911956 
L 53.750083 145.82168 
L 55.023471 145.545158 
L 56.29686 137.821971 
L 57.570248 133.902967 
L 58.843636 131.469592 
L 60.117025 132.681835 
L 61.390413 130.849408 
L 62.663802 121.607425 
L 63.93719 123.422459 
L 65.210579 128.550183 
L 66.483967 131.836477 
L 67.757355 121.998321 
L 69.030744 111.653633 
L 70.304132 117.449864 
L 71.577521 106.152815 
L 72.850909 105.165939 
L 74.124298 98.6287 
L 75.397686 96.464658 
L 76.671074 91.832748 
L 77.944463 91.587384 
L 79.217851 94.739851 
L 80.49124 96.131294 
L 81.764628 99.583639 
L 83.038017 101.366085 
L 84.311405 97.184465 
L 85.584793 86.087017 
L 86.858182 88.654989 
L 88.13157 85.931476 
L 89.404959 87.950372 
L 90.678347 83.093909 
L 91.951736 87.32694 
L 93.225124 82.043953 
L 94.498512 83.813055 
L 95.771901 79.920401 
L 97.045289 81.797355 
L 98.318678 87.647782 
L 99.592066 89.459755 
L 100.865455 94.914303 
L 102.138843 88.270375 
L 103.412231 89.160559 
L 104.68562 86.16751 
L 105.959008 93.809874 
L 107.232397 93.401643 
L 108.505785 88.643019 
L 109.779174 91.195857 
L 111.052562 90.696052 
L 112.32595 94.078231 
L 113.599339 95.22726 
L 114.872727 100.762429 
L 116.146116 107.123535 
L 117.419504 116.442575 
L 118.692893 119.992876 
L 119.966281 127.297903 
L 121.239669 120.808785 
L 122.513058 118.375815 
L 123.786446 116.681918 
L 125.059835 107.311219 
L 126.333223 114.632822 
L 127.606612 101.558689 
L 128.88 99.759113 
L 130.153388 104.356836 
L 131.426777 109.847086 
L 132.700165 108.044227 
L 133.973554 116.120217 
L 135.246942 121.275875 
L 136.520331 107.69476 
L 137.793719 109.461013 
L 139.067107 110.30088 
L 140.340496 108.057564 
L 141.613884 108.080846 
L 142.887273 117.742625 
L 144.160661 120.891466 
L 145.43405 107.320856 
L 146.707438 103.882547 
L 147.980826 96.15397 
L 149.254215 97.126225 
L 150.527603 93.828281 
L 151.800992 85.447401 
L 153.07438 85.975768 
L 154.347769 87.613494 
L 155.621157 96.817898 
L 156.894545 93.913658 
L 158.167934 83.291066 
L 159.441322 82.535759 
L 160.714711 86.419132 
L 161.988099 88.026081 
L 163.261488 94.449303 
L 164.534876 97.524326 
L 165.808264 99.794654 
L 167.081653 98.336451 
L 168.355041 99.404948 
L 169.62843 90.75493 
L 170.901818 96.334651 
" style="fill:none;opacity:0.6;stroke:#f86942;stroke-linecap:square;"/>
   </g>
   <g id="line2d_2">
    <path clip-path="url(#p5c29ad25e4)" d="M 44.836364 143.954949 
L 46.109752 142.39913 
L 47.38314 139.792787 
L 48.656529 145.469368 
L 49.929917 153.350936 
L 51.203306 152.127609 
L 52.476694 148.515439 
L 53.750083 149.529955 
L 55.023471 148.908755 
L 56.29686 144.950226 
L 57.570248 146.673822 
L 58.843636 146.554908 
L 60.117025 146.267685 
L 61.390413 144.388108 
L 62.663802 142.850018 
L 63.93719 135.560094 
L 65.210579 134.415625 
L 66.483967 129.28653 
L 67.757355 133.283427 
L 69.030744 130.908375 
L 70.304132 121.770411 
L 71.577521 125.1425 
L 72.850909 125.881804 
L 74.124298 130.72173 
L 75.397686 130.58408 
L 76.671074 137.168089 
L 77.944463 135.633339 
L 79.217851 128.562002 
L 80.49124 135.319914 
L 81.764628 133.319897 
L 83.038017 142.433818 
L 84.311405 145.286459 
L 85.584793 136.796162 
L 86.858182 138.422176 
L 88.13157 149.235223 
L 89.404959 143.84261 
L 90.678347 142.130557 
L 91.951736 143.810551 
L 93.225124 136.810774 
L 94.498512 134.358337 
L 95.771901 132.697212 
L 97.045289 127.085537 
L 98.318678 124.30182 
L 99.592066 117.541719 
L 100.865455 118.400705 
L 102.138843 125.108429 
L 103.412231 139.401758 
L 104.68562 127.663483 
L 105.959008 129.318766 
L 107.232397 127.565752 
L 108.505785 129.096596 
L 109.779174 120.517479 
L 111.052562 125.508718 
L 112.32595 126.59093 
L 113.599339 130.146356 
L 114.872727 131.561373 
L 116.146116 133.660182 
L 117.419504 132.589072 
L 118.692893 130.805285 
L 119.966281 137.914922 
L 121.239669 132.83999 
L 122.513058 139.558752 
L 123.786446 142.411847 
L 125.059835 136.590692 
L 126.333223 139.150896 
L 127.606612 132.308045 
L 128.88 133.934367 
L 130.153388 128.823007 
L 131.426777 125.087194 
L 132.700165 127.839671 
L 133.973554 127.55151 
L 135.246942 118.589921 
L 136.520331 124.750507 
L 137.793719 121.650455 
L 139.067107 117.492078 
L 140.340496 119.573793 
L 141.613884 120.107287 
L 142.887273 121.055306 
L 144.160661 121.506715 
L 145.43405 117.077477 
L 146.707438 115.820006 
L 147.980826 117.320524 
L 149.254215 119.076957 
L 150.527603 119.433476 
L 151.800992 121.711282 
L 153.07438 118.11016 
L 154.347769 122.951953 
L 155.621157 115.932163 
L 156.894545 113.461527 
L 158.167934 111.351571 
L 159.441322 99.158943 
L 160.714711 91.287123 
L 161.988099 92.823218 
L 163.261488 97.562264 
L 164.534876 95.321547 
L 165.808264 109.565643 
L 167.081653 111.252391 
L 168.355041 107.944885 
L 169.62843 101.212174 
L 170.901818 103.589571 
" style="fill:none;opacity:0.6;stroke:#f86942;stroke-linecap:square;"/>
   </g>
   <g id="line2d_3">
    <path clip-path="url(#p5c29ad25e4)" d="M 44.836364 143.954949 
L 46.109752 150.457768 
L 47.38314 152.267968 
L 48.656529 151.019611 
L 49.929917 144.887932 
L 51.203306 141.95101 
L 52.476694 148.895502 
L 53.750083 142.7785 
L 55.023471 145.444765 
L 56.29686 139.592179 
L 57.570248 137.267993 
L 58.843636 142.503359 
L 60.117025 147.425866 
L 61.390413 144.148348 
L 62.663802 143.393071 
L 63.93719 148.699029 
L 65.210579 144.05017 
L 66.483967 144.640217 
L 67.757355 150.039015 
L 69.030744 146.496701 
L 70.304132 145.683401 
L 71.577521 138.912569 
L 72.850909 142.163133 
L 74.124298 136.520171 
L 75.397686 143.831999 
L 76.671074 143.721131 
L 77.944463 144.972982 
L 79.217851 141.24114 
L 80.49124 142.762338 
L 81.764628 143.565102 
L 83.038017 140.512036 
L 84.311405 136.063344 
L 85.584793 137.226604 
L 86.858182 137.922928 
L 88.13157 141.169603 
L 89.404959 144.75229 
L 90.678347 139.546473 
L 91.951736 134.443982 
L 93.225124 133.310738 
L 94.498512 132.014141 
L 95.771901 127.123472 
L 97.045289 129.714812 
L 98.318678 128.866011 
L 99.592066 123.422174 
L 100.865455 129.17092 
L 102.138843 126.454014 
L 103.412231 129.24232 
L 104.68562 120.819789 
L 105.959008 120.336482 
L 107.232397 105.902446 
L 108.505785 114.87087 
L 109.779174 119.930378 
L 111.052562 116.566238 
L 112.32595 111.002921 
L 113.599339 107.75199 
L 114.872727 107.519513 
L 116.146116 105.337987 
L 117.419504 106.317066 
L 118.692893 109.069597 
L 119.966281 111.352778 
L 121.239669 113.222042 
L 122.513058 114.861823 
L 123.786446 114.120318 
L 125.059835 113.747648 
L 126.333223 122.526881 
L 127.606612 111.223493 
L 128.88 116.849005 
L 130.153388 118.331205 
L 131.426777 121.156673 
L 132.700165 119.089259 
L 133.973554 110.104412 
L 135.246942 108.664133 
L 136.520331 102.593708 
L 137.793719 100.346452 
L 139.067107 106.483551 
L 140.340496 106.256558 
L 141.613884 101.024888 
L 142.887273 100.537693 
L 144.160661 88.39 
L 145.43405 89.293581 
L 146.707438 85.023879 
L 147.980826 95.776221 
L 149.254215 93.352611 
L 150.527603 91.434267 
L 151.800992 95.798543 
L 153.07438 94.956109 
L 154.347769 91.700312 
L 155.621157 93.972155 
L 156.894545 91.211888 
L 158.167934 93.646395 
L 159.441322 95.460555 
L 160.714711 99.694899 
L 161.988099 98.862848 
L 163.261488 97.356686 
L 164.534876 99.485431 
L 165.808264 101.572215 
L 167.081653 100.395594 
L 168.355041 94.003847 
L 169.62843 97.338475 
L 170.901818 96.758992 
" style="fill:none;opacity:0.6;stroke:#f86942;stroke-linecap:square;"/>
   </g>
   <g id="line2d_4">
    <path clip-path="url(#p5c29ad25e4)" d="M 44.836364 143.954949 
L 46.109752 149.599737 
L 47.38314 153.861586 
L 48.656529 149.089198 
L 49.929917 153.887135 
L 51.203306 140.198782 
L 52.476694 150.274496 
L 53.750083 140.64801 
L 55.023471 134.961385 
L 56.29686 129.913154 
L 57.570248 131.235617 
L 58.843636 120.853196 
L 60.117025 119.631228 
L 61.390413 123.909633 
L 62.663802 121.297926 
L 63.93719 117.524706 
L 65.210579 120.006515 
L 66.483967 121.031264 
L 67.757355 120.684978 
L 69.030744 123.394751 
L 70.304132 125.986444 
L 71.577521 129.773265 
L 72.850909 131.467322 
L 74.124298 125.18497 
L 75.397686 129.501778 
L 76.671074 133.548578 
L 77.944463 129.901379 
L 79.217851 124.08493 
L 80.49124 120.07486 
L 81.764628 117.731979 
L 83.038017 131.739306 
L 84.311405 126.342598 
L 85.584793 115.948615 
L 86.858182 112.273093 
L 88.13157 110.916581 
L 89.404959 109.918729 
L 90.678347 113.973551 
L 91.951736 116.09777 
L 93.225124 115.186636 
L 94.498512 106.666302 
L 95.771901 108.475296 
L 97.045289 101.124624 
L 98.318678 100.421882 
L 99.592066 94.047158 
L 100.865455 87.177047 
L 102.138843 88.519226 
L 103.412231 87.716474 
L 104.68562 83.386761 
L 105.959008 78.433677 
L 107.232397 85.248713 
L 108.505785 84.944041 
L 109.779174 73.189203 
L 111.052562 72.266346 
L 112.32595 68.795406 
L 113.599339 69.827365 
L 114.872727 63.627235 
L 116.146116 60.673455 
L 117.419504 54.764502 
L 118.692893 64.300797 
L 119.966281 64.223122 
L 121.239669 71.298434 
L 122.513058 63.952394 
L 123.786446 55.78866 
L 125.059835 54.556981 
L 126.333223 43.086144 
L 127.606612 42.247934 
L 128.88 47.155731 
L 130.153388 52.175099 
L 131.426777 52.451373 
L 132.700165 57.877927 
L 133.973554 60.903446 
L 135.246942 68.2736 
L 136.520331 66.299884 
L 137.793719 68.712723 
L 139.067107 73.913163 
L 140.340496 68.188669 
L 141.613884 74.634503 
L 142.887273 78.20929 
L 144.160661 74.869945 
L 145.43405 73.974927 
L 146.707438 70.885492 
L 147.980826 61.492187 
L 149.254215 60.472349 
L 150.527603 69.347434 
L 151.800992 72.566627 
L 153.07438 67.785016 
L 154.347769 61.441565 
L 155.621157 62.70841 
L 156.894545 62.675683 
L 158.167934 64.381348 
L 159.441322 66.921447 
L 160.714711 67.031894 
L 161.988099 66.292661 
L 163.261488 69.595024 
L 164.534876 70.707165 
L 165.808264 65.822494 
L 167.081653 73.986119 
L 168.355041 77.783258 
L 169.62843 75.88534 
L 170.901818 70.322749 
" style="fill:none;opacity:0.6;stroke:#f86942;stroke-linecap:square;"/>
   </g>
   <g id="line2d_5">
    <path clip-path="url(#p5c29ad25e4)" d="M 44.836364 143.954949 
L 46.109752 145.975463 
L 47.38314 148.652662 
L 48.656529 147.367538 
L 49.929917 146.09309 
L 51.203306 142.842679 
L 52.476694 145.766274 
L 53.750083 133.860683 
L 55.023471 129.984434 
L 56.29686 118.513134 
L 57.570248 116.552092 
L 58.843636 121.26387 
L 60.117025 118.53749 
L 61.390413 124.225372 
L 62.663802 119.088539 
L 63.93719 118.493054 
L 65.210579 121.715118 
L 66.483967 127.041065 
L 67.757355 133.178524 
L 69.030744 137.094316 
L 70.304132 138.603369 
L 71.577521 142.843197 
L 72.850909 143.865979 
L 74.124298 135.056187 
L 75.397686 134.880282 
L 76.671074 134.807802 
L 77.944463 133.063272 
L 79.217851 127.16537 
L 80.49124 124.040521 
L 81.764628 116.36006 
L 83.038017 116.061178 
L 84.311405 120.025303 
L 85.584793 121.718623 
L 86.858182 122.477498 
L 88.13157 120.774875 
L 89.404959 124.352019 
L 90.678347 128.549167 
L 91.951736 129.599757 
L 93.225124 133.922699 
L 94.498512 129.589447 
L 95.771901 122.834834 
L 97.045289 127.045409 
L 98.318678 130.894394 
L 99.592066 125.076055 
L 100.865455 125.142791 
L 102.138843 118.325564 
L 103.412231 114.734326 
L 104.68562 125.271197 
L 105.959008 131.910527 
L 107.232397 136.112672 
L 108.505785 128.773361 
L 109.779174 132.983546 
L 111.052562 132.455707 
L 112.32595 140.645329 
L 113.599339 137.121108 
L 114.872727 141.618384 
L 116.146116 136.198398 
L 117.419504 140.23141 
L 118.692893 136.435733 
L 119.966281 141.230141 
L 121.239669 144.44687 
L 122.513058 151.890959 
L 123.786446 150.636226 
L 125.059835 151.0711 
L 126.333223 143.165869 
L 127.606612 148.635472 
L 128.88 146.341977 
L 130.153388 145.318998 
L 131.426777 143.320093 
L 132.700165 140.830115 
L 133.973554 144.673485 
L 135.246942 142.367459 
L 136.520331 144.561043 
L 137.793719 152.309352 
L 139.067107 150.978596 
L 140.340496 148.107022 
L 141.613884 154.552367 
L 142.887273 161.952144 
L 144.160661 156.938882 
L 145.43405 158.615359 
L 146.707438 152.06283 
L 147.980826 155.125584 
L 149.254215 151.031321 
L 150.527603 161.235013 
L 151.800992 164.425716 
L 153.07438 169.565821 
L 154.347769 166.573625 
L 155.621157 170.448868 
L 156.894545 168.851225 
L 158.167934 174.630116 
L 159.441322 180.348521 
L 160.714711 182.210123 
L 161.988099 173.046059 
L 163.261488 170.920969 
L 164.534876 175.968867 
L 165.808264 170.958955 
L 167.081653 173.590903 
L 168.355041 176.60603 
L 169.62843 172.831295 
L 170.901818 176.225656 
" style="fill:none;stroke:#3dabb2;stroke-linecap:square;stroke-width:2;"/>
   </g>
   <g id="line2d_6">
    <path clip-path="url(#p5c29ad25e4)" d="M 170.901818 176.225656 
L 172.175207 178.716613 
L 173.448595 185.142778 
L 174.721983 190.599343 
L 175.995372 196.465658 
L 177.26876 201.185591 
L 178.542149 202.533985 
L 179.815537 198.312973 
L 181.088926 205.294024 
L 182.362314 199.804235 
L 183.635702 197.086404 
L 184.909091 194.32221 
L 186.182479 195.635983 
L 187.455868 194.64053 
L 188.729256 191.723834 
L 190.002645 188.472789 
L 191.276033 190.234183 
L 192.549421 186.414599 
L 193.82281 180.181935 
L 195.096198 175.153124 
L 196.369587 171.50608 
L 197.642975 174.640735 
L 198.916364 174.616328 
L 200.189752 173.854493 
L 201.46314 176.251071 
L 202.736529 175.118641 
L 204.009917 174.244269 
L 205.283306 174.503322 
L 206.556694 175.280038 
L 207.830083 175.463086 
L 209.103471 175.288906 
L 210.37686 177.188266 
L 211.650248 179.386255 
L 212.923636 179.649725 
L 214.197025 185.472291 
L 215.470413 195.095918 
L 216.743802 196.21781 
L 218.01719 202.327684 
L 219.290579 193.805597 
L 220.563967 190.057256 
L 221.837355 183.590154 
L 223.110744 179.793644 
L 224.384132 181.456976 
L 225.657521 178.861663 
L 226.930909 176.167658 
L 228.204298 183.306918 
L 229.477686 179.241056 
L 230.751074 183.885142 
L 232.024463 189.990526 
L 233.297851 186.150173 
L 234.57124 189.118307 
L 235.844628 194.097614 
L 237.118017 187.942593 
L 238.391405 197.093716 
L 239.664793 201.08549 
L 240.938182 195.260397 
L 242.21157 181.417455 
L 243.484959 181.08354 
L 244.758347 176.350456 
L 246.031736 181.516296 
L 247.305124 170.764738 
L 248.578512 173.822702 
L 249.851901 188.413397 
L 251.125289 187.845809 
L 252.398678 187.106589 
L 253.672066 191.168953 
L 254.945455 189.834181 
L 256.218843 183.031466 
L 257.492231 190.021242 
L 258.76562 187.429856 
L 260.039008 192.531347 
L 261.312397 184.831964 
L 262.585785 181.875 
L 263.859174 184.532387 
L 265.132562 183.103461 
L 266.40595 185.120466 
L 267.679339 181.760207 
L 268.952727 181.886779 
L 270.226116 175.107046 
L 271.499504 161.311294 
L 272.772893 159.535508 
L 274.046281 155.014104 
L 275.319669 153.058677 
L 276.593058 155.683858 
L 277.866446 153.181181 
L 279.139835 148.119486 
L 280.413223 143.731703 
L 281.686612 142.920035 
L 282.96 143.720667 
L 284.233388 134.23803 
L 285.506777 129.423977 
L 286.780165 122.260563 
L 288.053554 125.640159 
L 289.326942 118.267854 
L 290.600331 125.826641 
L 291.873719 123.351774 
L 293.147107 123.199438 
L 294.420496 122.361029 
L 295.693884 124.490169 
L 296.967273 119.667181 
" style="fill:none;opacity:0.6;stroke:#f86942;stroke-linecap:square;"/>
   </g>
   <g id="line2d_7">
    <path clip-path="url(#p5c29ad25e4)" d="M 170.901818 176.225656 
L 172.175207 173.436697 
L 173.448595 172.425334 
L 174.721983 161.722599 
L 175.995372 156.323359 
L 177.26876 155.373521 
L 178.542149 155.433047 
L 179.815537 165.728934 
L 181.088926 169.049312 
L 182.362314 171.543587 
L 183.635702 175.745207 
L 184.909091 176.309319 
L 186.182479 166.875213 
L 187.455868 164.211635 
L 188.729256 165.42753 
L 190.002645 171.052295 
L 191.276033 166.120964 
L 192.549421 167.314707 
L 193.82281 157.625642 
L 195.096198 156.808413 
L 196.369587 149.380237 
L 197.642975 146.931325 
L 198.916364 146.53931 
L 200.189752 145.885709 
L 201.46314 142.644348 
L 202.736529 142.783844 
L 204.009917 150.905345 
L 205.283306 160.671417 
L 206.556694 164.389101 
L 207.830083 168.627118 
L 209.103471 167.542292 
L 210.37686 168.219085 
L 211.650248 165.664755 
L 212.923636 166.818985 
L 214.197025 163.907725 
L 215.470413 162.156121 
L 216.743802 156.436566 
L 218.01719 161.101336 
L 219.290579 170.951158 
L 220.563967 174.168023 
L 221.837355 170.393441 
L 223.110744 173.805052 
L 224.384132 176.287099 
L 225.657521 182.966508 
L 226.930909 188.01418 
L 228.204298 189.019893 
L 229.477686 198.070347 
L 230.751074 198.852613 
L 232.024463 198.759746 
L 233.297851 199.787315 
L 234.57124 199.141479 
L 235.844628 202.580606 
L 237.118017 195.940321 
L 238.391405 191.835449 
L 239.664793 195.934427 
L 240.938182 196.331344 
L 242.21157 199.772992 
L 243.484959 193.183241 
L 244.758347 193.802687 
L 246.031736 200.025381 
L 247.305124 195.640998 
L 248.578512 192.474001 
L 249.851901 193.52894 
L 251.125289 196.244869 
L 252.398678 198.413649 
L 253.672066 198.734458 
L 254.945455 204.220725 
L 256.218843 194.867111 
L 257.492231 195.250652 
L 258.76562 183.826362 
L 260.039008 186.168796 
L 261.312397 187.253957 
L 262.585785 188.780821 
L 263.859174 184.083965 
L 265.132562 178.906476 
L 266.40595 177.272358 
L 267.679339 171.377019 
L 268.952727 165.376513 
L 270.226116 160.196402 
L 271.499504 162.354169 
L 272.772893 168.280477 
L 274.046281 176.707671 
L 275.319669 184.266173 
L 276.593058 185.902576 
L 277.866446 192.581006 
L 279.139835 193.142458 
L 280.413223 185.40549 
L 281.686612 186.214265 
L 282.96 196.015547 
L 284.233388 191.661314 
L 285.506777 192.828148 
L 286.780165 195.41582 
L 288.053554 196.82006 
L 289.326942 203.687247 
L 290.600331 203.591143 
L 291.873719 199.681528 
L 293.147107 204.991392 
L 294.420496 202.038365 
L 295.693884 198.881832 
L 296.967273 201.826473 
" style="fill:none;opacity:0.6;stroke:#f86942;stroke-linecap:square;"/>
   </g>
   <g id="line2d_8">
    <path clip-path="url(#p5c29ad25e4)" d="M 170.901818 176.225656 
L 172.175207 170.996656 
L 173.448595 177.00038 
L 174.721983 174.721971 
L 175.995372 175.465714 
L 177.26876 175.893075 
L 178.542149 173.879716 
L 179.815537 172.772022 
L 181.088926 182.940522 
L 182.362314 189.660021 
L 183.635702 195.258973 
L 184.909091 196.482017 
L 186.182479 192.440322 
L 187.455868 186.954218 
L 188.729256 183.473692 
L 190.002645 182.566232 
L 191.276033 187.593508 
L 192.549421 181.472508 
L 193.82281 180.923614 
L 195.096198 187.338219 
L 196.369587 190.550378 
L 197.642975 184.239179 
L 198.916364 176.80963 
L 200.189752 181.658907 
L 201.46314 170.736419 
L 202.736529 166.012537 
L 204.009917 163.068663 
L 205.283306 169.128087 
L 206.556694 157.97797 
L 207.830083 158.253747 
L 209.103471 162.148942 
L 210.37686 164.396471 
L 211.650248 164.939875 
L 212.923636 170.07161 
L 214.197025 166.890373 
L 215.470413 167.497698 
L 216.743802 176.473465 
L 218.01719 181.00094 
L 219.290579 186.880196 
L 220.563967 191.065674 
L 221.837355 193.913592 
L 223.110744 192.942314 
L 224.384132 194.469041 
L 225.657521 195.437546 
L 226.930909 199.31966 
L 228.204298 195.760857 
L 229.477686 197.196456 
L 230.751074 186.885536 
L 232.024463 191.5158 
L 233.297851 191.7283 
L 234.57124 184.991148 
L 235.844628 190.929474 
L 237.118017 195.856676 
L 238.391405 201.637299 
L 239.664793 202.310186 
L 240.938182 203.828783 
L 242.21157 202.722414 
L 243.484959 196.929502 
L 244.758347 202.921548 
L 246.031736 204.918756 
L 247.305124 202.849701 
L 248.578512 215.862507 
L 249.851901 218.591049 
L 251.125289 220.952615 
L 252.398678 224.087872 
L 253.672066 222.616726 
L 254.945455 216.932157 
L 256.218843 219.722716 
L 257.492231 208.346555 
L 258.76562 211.9872 
L 260.039008 212.301188 
L 261.312397 211.175652 
L 262.585785 219.077392 
L 263.859174 216.704892 
L 265.132562 216.59586 
L 266.40595 215.785644 
L 267.679339 210.409192 
L 268.952727 210.172581 
L 270.226116 204.435082 
L 271.499504 211.366639 
L 272.772893 212.680975 
L 274.046281 206.179001 
L 275.319669 206.596334 
L 276.593058 212.921948 
L 277.866446 218.911208 
L 279.139835 222.835253 
L 280.413223 229.635215 
L 281.686612 227.06864 
L 282.96 241.654464 
L 284.233388 245.910315 
L 285.506777 253.115765 
L 286.780165 260.23102 
L 288.053554 263.182068 
L 289.326942 269.580693 
L 290.600331 267.106091 
L 291.873719 271.19666 
L 293.147107 274.057986 
L 294.420496 269.717894 
L 295.693884 268.304847 
L 296.967273 267.650673 
" style="fill:none;opacity:0.6;stroke:#f86942;stroke-linecap:square;"/>
   </g>
   <g id="line2d_9">
    <path clip-path="url(#p5c29ad25e4)" d="M 170.901818 176.225656 
L 172.175207 176.359638 
L 173.448595 182.185251 
L 174.721983 180.622696 
L 175.995372 169.645527 
L 177.26876 171.008048 
L 178.542149 176.206954 
L 179.815537 184.071191 
L 181.088926 194.029724 
L 182.362314 195.808717 
L 183.635702 198.608535 
L 184.909091 193.193143 
L 186.182479 193.607316 
L 187.455868 190.180396 
L 188.729256 186.950401 
L 190.002645 180.740022 
L 191.276033 182.339924 
L 192.549421 177.313142 
L 193.82281 174.976113 
L 195.096198 180.482371 
L 196.369587 185.793993 
L 197.642975 183.619825 
L 198.916364 185.253672 
L 200.189752 196.70837 
L 201.46314 195.377851 
L 202.736529 194.027957 
L 204.009917 193.001117 
L 205.283306 185.09514 
L 206.556694 187.158729 
L 207.830083 195.119334 
L 209.103471 191.833584 
L 210.37686 191.030978 
L 211.650248 187.91866 
L 212.923636 184.564846 
L 214.197025 183.7899 
L 215.470413 186.6466 
L 216.743802 186.985991 
L 218.01719 187.80525 
L 219.290579 190.169579 
L 220.563967 189.35677 
L 221.837355 189.977469 
L 223.110744 189.724915 
L 224.384132 195.373515 
L 225.657521 196.853494 
L 226.930909 202.794079 
L 228.204298 208.278533 
L 229.477686 201.144856 
L 230.751074 206.41351 
L 232.024463 203.897446 
L 233.297851 212.623245 
L 234.57124 213.159844 
L 235.844628 207.756254 
L 237.118017 203.68964 
L 238.391405 207.531557 
L 239.664793 203.418904 
L 240.938182 205.348521 
L 242.21157 210.360579 
L 243.484959 216.617939 
L 244.758347 227.021966 
L 246.031736 224.58934 
L 247.305124 220.570403 
L 248.578512 211.912018 
L 249.851901 213.731916 
L 251.125289 215.429844 
L 252.398678 218.325608 
L 253.672066 216.707627 
L 254.945455 215.895628 
L 256.218843 223.693702 
L 257.492231 221.221443 
L 258.76562 218.262852 
L 260.039008 216.946429 
L 261.312397 218.196372 
L 262.585785 228.128437 
L 263.859174 227.60411 
L 265.132562 228.157492 
L 266.40595 230.571919 
L 267.679339 230.220793 
L 268.952727 231.383835 
L 270.226116 231.012133 
L 271.499504 231.617116 
L 272.772893 234.051619 
L 274.046281 239.798819 
L 275.319669 246.215714 
L 276.593058 244.446864 
L 277.866446 244.638406 
L 279.139835 242.529804 
L 280.413223 240.267963 
L 281.686612 240.935861 
L 282.96 231.01019 
L 284.233388 233.612661 
L 285.506777 233.261917 
L 286.780165 235.891609 
L 288.053554 237.751941 
L 289.326942 243.108403 
L 290.600331 239.584849 
L 291.873719 242.330979 
L 293.147107 238.9341 
L 294.420496 233.420475 
L 295.693884 233.530656 
L 296.967273 236.28413 
" style="fill:none;opacity:0.6;stroke:#f86942;stroke-linecap:square;"/>
   </g>
   <g id="line2d_10">
    <path clip-path="url(#p5c29ad25e4)" d="M 170.901818 176.225656 
L 172.175207 174.620669 
L 173.448595 171.691204 
L 174.721983 168.326195 
L 175.995372 175.204902 
L 177.26876 167.406864 
L 178.542149 171.960296 
L 179.815537 179.111679 
L 181.088926 175.92349 
L 182.362314 177.708719 
L 183.635702 177.141706 
L 184.909091 176.026275 
L 186.182479 167.112345 
L 187.455868 166.338136 
L 188.729256 163.904496 
L 190.002645 165.662643 
L 191.276033 169.315035 
L 192.549421 164.848575 
L 193.82281 161.802719 
L 195.096198 153.640317 
L 196.369587 157.634554 
L 197.642975 155.710817 
L 198.916364 151.71356 
L 200.189752 160.359334 
L 201.46314 166.96125 
L 202.736529 164.411155 
L 204.009917 163.210003 
L 205.283306 166.519293 
L 206.556694 161.799432 
L 207.830083 166.439204 
L 209.103471 173.903317 
L 210.37686 173.462991 
L 211.650248 172.778181 
L 212.923636 167.875074 
L 214.197025 166.713273 
L 215.470413 162.39454 
L 216.743802 167.415214 
L 218.01719 162.937642 
L 219.290579 168.348959 
L 220.563967 163.023364 
L 221.837355 164.043197 
L 223.110744 164.085518 
L 224.384132 166.231217 
L 225.657521 166.898646 
L 226.930909 168.55191 
L 228.204298 176.124009 
L 229.477686 180.416297 
L 230.751074 183.656205 
L 232.024463 182.273892 
L 233.297851 179.548425 
L 234.57124 181.14476 
L 235.844628 179.154925 
L 237.118017 176.819733 
L 238.391405 178.423028 
L 239.664793 191.035521 
L 240.938182 190.854793 
L 242.21157 183.321011 
L 243.484959 186.12027 
L 244.758347 182.285282 
L 246.031736 185.955181 
L 247.305124 189.363102 
L 248.578512 178.424757 
L 249.851901 178.802824 
L 251.125289 183.685695 
L 252.398678 177.753002 
L 253.672066 176.142242 
L 254.945455 174.110458 
L 256.218843 183.927017 
L 257.492231 185.696509 
L 258.76562 185.334987 
L 260.039008 186.165853 
L 261.312397 191.421502 
L 262.585785 193.140819 
L 263.859174 185.676058 
L 265.132562 187.697914 
L 266.40595 184.369151 
L 267.679339 176.528458 
L 268.952727 177.265938 
L 270.226116 177.988322 
L 271.499504 171.897603 
L 272.772893 165.763975 
L 274.046281 162.223002 
L 275.319669 168.518933 
L 276.593058 165.764727 
L 277.866446 164.493073 
L 279.139835 163.187436 
L 280.413223 154.148774 
L 281.686612 159.113028 
L 282.96 149.658775 
L 284.233388 158.363164 
L 285.506777 164.13731 
L 286.780165 163.830827 
L 288.053554 165.466587 
L 289.326942 163.029112 
L 290.600331 159.00635 
L 291.873719 164.52254 
L 293.147107 165.468701 
L 294.420496 164.373115 
L 295.693884 171.278434 
L 296.967273 172.353927 
" style="fill:none;stroke:#3dabb2;stroke-linecap:square;stroke-width:2;"/>
   </g>
   <g id="line2d_11">
    <path clip-path="url(#p5c29ad25e4)" d="M 296.967273 172.353927 
L 298.240661 180.541696 
L 299.51405 185.358614 
L 300.787438 188.456563 
L 302.060826 195.881289 
L 303.334215 198.300766 
L 304.607603 202.933645 
L 305.880992 220.123657 
L 307.15438 215.484898 
L 308.427769 209.269196 
L 309.701157 207.291968 
L 310.974545 206.82475 
L 312.247934 207.018785 
L 313.521322 219.107782 
L 314.794711 219.454671 
L 316.068099 226.983741 
L 317.341488 232.017317 
L 318.614876 239.258714 
L 319.888264 238.813677 
L 321.161653 225.079519 
L 322.435041 227.592059 
L 323.70843 220.493092 
L 324.981818 218.137125 
L 326.255207 209.958084 
L 327.528595 203.760254 
L 328.801983 213.289665 
L 330.075372 207.54157 
L 331.34876 204.701269 
L 332.622149 210.668739 
L 333.895537 208.545859 
L 335.168926 215.944765 
L 336.442314 214.929773 
L 337.715702 208.928718 
L 338.989091 207.688546 
L 340.262479 213.943149 
L 341.535868 215.484758 
L 342.809256 213.680894 
L 344.082645 209.441062 
L 345.356033 208.402197 
L 346.629421 210.296186 
L 347.90281 213.167505 
L 349.176198 210.671623 
L 350.449587 202.202688 
L 351.722975 198.565061 
L 352.996364 201.898052 
L 354.269752 195.467411 
L 355.54314 195.972144 
L 356.816529 188.228418 
L 358.089917 188.615049 
L 359.363306 182.949102 
L 360.636694 184.557858 
L 361.910083 185.309022 
L 363.183471 177.840227 
L 364.45686 184.439535 
L 365.730248 183.194935 
L 367.003636 186.156028 
L 368.277025 184.651248 
L 369.550413 184.019421 
L 370.823802 172.011341 
L 372.09719 170.184329 
L 373.370579 176.469829 
L 374.643967 178.570025 
L 375.917355 174.856091 
L 377.190744 176.456582 
L 378.464132 172.738556 
L 379.737521 165.622624 
L 381.010909 160.57122 
L 382.284298 166.301435 
L 383.557686 169.260971 
L 384.831074 168.81085 
L 386.104463 178.032604 
L 387.377851 174.32464 
L 388.65124 175.687066 
L 389.924628 176.589226 
L 391.198017 174.755593 
L 392.471405 177.798409 
L 393.744793 169.964443 
L 395.018182 166.052981 
L 396.29157 172.855869 
L 397.564959 172.572048 
L 398.838347 175.343072 
L 400.111736 171.164876 
L 401.385124 167.281203 
L 402.658512 160.134366 
L 403.931901 162.577864 
L 405.205289 164.004327 
L 406.478678 162.76693 
L 407.752066 160.950738 
L 409.025455 164.301292 
L 410.298843 160.597466 
L 411.572231 160.976367 
L 412.84562 173.73401 
L 414.119008 186.22745 
L 415.392397 191.387803 
L 416.665785 183.471265 
L 417.939174 178.745822 
L 419.212562 177.008349 
L 420.48595 179.110043 
L 421.759339 179.684564 
L 423.032727 176.782176 
" style="fill:none;opacity:0.6;stroke:#f86942;stroke-linecap:square;"/>
   </g>
   <g id="line2d_12">
    <path clip-path="url(#p5c29ad25e4)" d="M 296.967273 172.353927 
L 298.240661 174.308945 
L 299.51405 167.600498 
L 300.787438 159.779905 
L 302.060826 154.063157 
L 303.334215 157.130614 
L 304.607603 157.823882 
L 305.880992 158.133575 
L 307.15438 156.615116 
L 308.427769 163.925131 
L 309.701157 157.426379 
L 310.974545 162.039216 
L 312.247934 161.153135 
L 313.521322 160.848702 
L 314.794711 161.92466 
L 316.068099 155.895712 
L 317.341488 153.982674 
L 318.614876 149.294721 
L 319.888264 145.344912 
L 321.161653 148.876302 
L 322.435041 141.737313 
L 323.70843 135.599717 
L 324.981818 140.688133 
L 326.255207 141.985859 
L 327.528595 143.642187 
L 328.801983 141.971758 
L 330.075372 139.547341 
L 331.34876 127.505625 
L 332.622149 131.774814 
L 333.895537 133.340202 
L 335.168926 126.936395 
L 336.442314 120.766989 
L 337.715702 124.652465 
L 338.989091 120.428512 
L 340.262479 122.308729 
L 341.535868 118.975935 
L 342.809256 115.576637 
L 344.082645 106.571 
L 345.356033 114.461401 
L 346.629421 118.494584 
L 347.90281 115.491301 
L 349.176198 120.985273 
L 350.449587 123.829051 
L 351.722975 118.948763 
L 352.996364 123.323599 
L 354.269752 126.337103 
L 355.54314 126.357684 
L 356.816529 134.02821 
L 358.089917 122.809222 
L 359.363306 128.632613 
L 360.636694 138.713019 
L 361.910083 139.350383 
L 363.183471 141.814868 
L 364.45686 137.710254 
L 365.730248 132.273821 
L 367.003636 140.04151 
L 368.277025 145.617635 
L 369.550413 150.903976 
L 370.823802 139.410333 
L 372.09719 139.960167 
L 373.370579 131.82582 
L 374.643967 131.418934 
L 375.917355 131.217291 
L 377.190744 138.635092 
L 378.464132 138.758774 
L 379.737521 133.399438 
L 381.010909 132.710744 
L 382.284298 130.533588 
L 383.557686 128.717819 
L 384.831074 116.033843 
L 386.104463 120.09486 
L 387.377851 116.129844 
L 388.65124 112.472016 
L 389.924628 108.725966 
L 391.198017 99.614698 
L 392.471405 102.480553 
L 393.744793 105.620603 
L 395.018182 104.633697 
L 396.29157 101.313994 
L 397.564959 107.828005 
L 398.838347 108.137345 
L 400.111736 110.691042 
L 401.385124 103.097704 
L 402.658512 94.843995 
L 403.931901 94.586003 
L 405.205289 89.295936 
L 406.478678 99.328087 
L 407.752066 101.547707 
L 409.025455 108.650493 
L 410.298843 109.726803 
L 411.572231 105.193242 
L 412.84562 108.182728 
L 414.119008 108.16088 
L 415.392397 97.958568 
L 416.665785 95.30635 
L 417.939174 80.833974 
L 419.212562 81.236107 
L 420.48595 90.797393 
L 421.759339 88.214287 
L 423.032727 89.417405 
" style="fill:none;opacity:0.6;stroke:#f86942;stroke-linecap:square;"/>
   </g>
   <g id="line2d_13">
    <path clip-path="url(#p5c29ad25e4)" d="M 296.967273 172.353927 
L 298.240661 179.751187 
L 299.51405 184.312268 
L 300.787438 193.514373 
L 302.060826 182.848417 
L 303.334215 191.03108 
L 304.607603 181.113449 
L 305.880992 182.922509 
L 307.15438 182.372551 
L 308.427769 180.657001 
L 309.701157 175.41396 
L 310.974545 184.309387 
L 312.247934 183.436682 
L 313.521322 194.056436 
L 314.794711 191.93367 
L 316.068099 195.115296 
L 317.341488 196.642287 
L 318.614876 190.20885 
L 319.888264 199.641731 
L 321.161653 199.970765 
L 322.435041 197.480776 
L 323.70843 196.419466 
L 324.981818 186.143592 
L 326.255207 183.412816 
L 327.528595 189.022244 
L 328.801983 191.223908 
L 330.075372 192.138116 
L 331.34876 186.92162 
L 332.622149 182.628274 
L 333.895537 180.910183 
L 335.168926 178.495203 
L 336.442314 176.70569 
L 337.715702 174.586847 
L 338.989091 172.817657 
L 340.262479 162.65953 
L 341.535868 157.227005 
L 342.809256 152.376802 
L 344.082645 148.732906 
L 345.356033 144.6075 
L 346.629421 151.999781 
L 347.90281 149.342769 
L 349.176198 153.697491 
L 350.449587 144.227998 
L 351.722975 143.021798 
L 352.996364 141.471665 
L 354.269752 133.072187 
L 355.54314 137.405357 
L 356.816529 144.526011 
L 358.089917 142.330027 
L 359.363306 139.726885 
L 360.636694 136.558888 
L 361.910083 138.004353 
L 363.183471 136.258383 
L 364.45686 139.020579 
L 365.730248 146.282646 
L 367.003636 142.539096 
L 368.277025 141.933514 
L 369.550413 148.890693 
L 370.823802 156.495697 
L 372.09719 162.397525 
L 373.370579 160.483554 
L 374.643967 165.285289 
L 375.917355 163.764594 
L 377.190744 170.89301 
L 378.464132 172.222628 
L 379.737521 170.088292 
L 381.010909 174.565949 
L 382.284298 178.162614 
L 383.557686 185.110197 
L 384.831074 179.721705 
L 386.104463 182.263881 
L 387.377851 182.106328 
L 388.65124 191.323089 
L 389.924628 194.445941 
L 391.198017 194.17513 
L 392.471405 190.514201 
L 393.744793 190.115042 
L 395.018182 199.287793 
L 396.29157 199.54759 
L 397.564959 199.631128 
L 398.838347 197.598872 
L 400.111736 194.999716 
L 401.385124 199.804706 
L 402.658512 200.176211 
L 403.931901 196.902431 
L 405.205289 192.910619 
L 406.478678 197.718435 
L 407.752066 201.649656 
L 409.025455 200.378511 
L 410.298843 202.280662 
L 411.572231 203.770738 
L 412.84562 199.383817 
L 414.119008 198.609436 
L 415.392397 195.589252 
L 416.665785 192.408456 
L 417.939174 197.962078 
L 419.212562 194.136201 
L 420.48595 194.376849 
L 421.759339 202.716237 
L 423.032727 201.48802 
" style="fill:none;opacity:0.6;stroke:#f86942;stroke-linecap:square;"/>
   </g>
   <g id="line2d_14">
    <path clip-path="url(#p5c29ad25e4)" d="M 296.967273 172.353927 
L 298.240661 171.128826 
L 299.51405 169.267397 
L 300.787438 171.943722 
L 302.060826 166.839951 
L 303.334215 170.877562 
L 304.607603 172.928777 
L 305.880992 167.316414 
L 307.15438 164.760482 
L 308.427769 163.557077 
L 309.701157 154.601686 
L 310.974545 155.812789 
L 312.247934 165.38317 
L 313.521322 164.254184 
L 314.794711 166.330705 
L 316.068099 168.113166 
L 317.341488 172.774423 
L 318.614876 178.107587 
L 319.888264 181.395435 
L 321.161653 179.365047 
L 322.435041 185.457334 
L 323.70843 182.902334 
L 324.981818 185.72076 
L 326.255207 184.928754 
L 327.528595 177.130492 
L 328.801983 179.586713 
L 330.075372 178.500956 
L 331.34876 179.202917 
L 332.622149 174.06595 
L 333.895537 181.869024 
L 335.168926 179.821097 
L 336.442314 182.38109 
L 337.715702 189.38797 
L 338.989091 194.205686 
L 340.262479 196.985762 
L 341.535868 196.150216 
L 342.809256 194.735818 
L 344.082645 190.557018 
L 345.356033 195.12886 
L 346.629421 195.544822 
L 347.90281 194.846271 
L 349.176198 190.988944 
L 350.449587 196.216704 
L 351.722975 196.97624 
L 352.996364 204.718318 
L 354.269752 206.25147 
L 355.54314 212.060147 
L 356.816529 216.45603 
L 358.089917 215.057824 
L 359.363306 215.871645 
L 360.636694 219.640895 
L 361.910083 213.046462 
L 363.183471 208.247976 
L 364.45686 208.496978 
L 365.730248 212.052806 
L 367.003636 209.053018 
L 368.277025 211.463866 
L 369.550413 212.352039 
L 370.823802 209.701318 
L 372.09719 210.911307 
L 373.370579 222.546331 
L 374.643967 221.931084 
L 375.917355 215.807922 
L 377.190744 214.094921 
L 378.464132 217.419117 
L 379.737521 209.125731 
L 381.010909 215.591608 
L 382.284298 207.510458 
L 383.557686 209.614482 
L 384.831074 216.864496 
L 386.104463 213.738252 
L 387.377851 209.764366 
L 388.65124 207.889718 
L 389.924628 204.763907 
L 391.198017 199.051195 
L 392.471405 196.921978 
L 393.744793 190.706768 
L 395.018182 188.22651 
L 396.29157 184.159154 
L 397.564959 186.398967 
L 398.838347 188.900251 
L 400.111736 193.985362 
L 401.385124 190.229764 
L 402.658512 193.146793 
L 403.931901 194.777972 
L 405.205289 196.151744 
L 406.478678 197.174987 
L 407.752066 209.489807 
L 409.025455 215.584626 
L 410.298843 213.353272 
L 411.572231 222.501433 
L 412.84562 216.210683 
L 414.119008 213.849177 
L 415.392397 216.611735 
L 416.665785 217.235765 
L 417.939174 217.852632 
L 419.212562 214.229312 
L 420.48595 212.575579 
L 421.759339 206.676911 
L 423.032727 198.506719 
" style="fill:none;opacity:0.6;stroke:#f86942;stroke-linecap:square;"/>
   </g>
   <g id="line2d_15">
    <path clip-path="url(#p5c29ad25e4)" d="M 296.967273 172.353927 
L 298.240661 166.386855 
L 299.51405 167.503537 
L 300.787438 164.854074 
L 302.060826 164.664794 
L 303.334215 161.531851 
L 304.607603 174.492025 
L 305.880992 182.760208 
L 307.15438 170.033211 
L 308.427769 167.564691 
L 309.701157 159.577463 
L 310.974545 153.834812 
L 312.247934 157.010058 
L 313.521322 159.977568 
L 314.794711 158.553861 
L 316.068099 158.185025 
L 317.341488 163.858274 
L 318.614876 172.71261 
L 319.888264 169.763662 
L 321.161653 164.900092 
L 322.435041 172.912458 
L 323.70843 173.05083 
L 324.981818 161.617855 
L 326.255207 164.937719 
L 327.528595 164.498672 
L 328.801983 163.734003 
L 330.075372 156.150973 
L 331.34876 158.980177 
L 332.622149 164.24143 
L 333.895537 155.227084 
L 335.168926 152.391197 
L 336.442314 158.50384 
L 337.715702 161.301633 
L 338.989091 165.664198 
L 340.262479 161.041252 
L 341.535868 167.206144 
L 342.809256 162.369961 
L 344.082645 155.910883 
L 345.356033 153.191759 
L 346.629421 157.749408 
L 347.90281 158.596584 
L 349.176198 149.904436 
L 350.449587 152.928109 
L 351.722975 151.435028 
L 352.996364 143.309736 
L 354.269752 145.859077 
L 355.54314 141.213484 
L 356.816529 128.995041 
L 358.089917 123.606359 
L 359.363306 123.046927 
L 360.636694 122.053218 
L 361.910083 126.170698 
L 363.183471 122.784801 
L 364.45686 123.122351 
L 365.730248 131.753174 
L 367.003636 129.886565 
L 368.277025 135.044503 
L 369.550413 132.855332 
L 370.823802 121.340544 
L 372.09719 125.794795 
L 373.370579 124.387693 
L 374.643967 122.156912 
L 375.917355 124.248543 
L 377.190744 118.69827 
L 378.464132 114.013053 
L 379.737521 114.975197 
L 381.010909 117.200294 
L 382.284298 122.240872 
L 383.557686 114.828996 
L 384.831074 115.194759 
L 386.104463 111.034906 
L 387.377851 112.597762 
L 388.65124 115.488445 
L 389.924628 121.862243 
L 391.198017 123.75298 
L 392.471405 118.162257 
L 393.744793 119.531044 
L 395.018182 115.8361 
L 396.29157 105.524042 
L 397.564959 100.542901 
L 398.838347 101.334871 
L 400.111736 88.407908 
L 401.385124 90.804012 
L 402.658512 95.32918 
L 403.931901 99.459116 
L 405.205289 95.038206 
L 406.478678 98.823779 
L 407.752066 96.83833 
L 409.025455 85.928429 
L 410.298843 83.551223 
L 411.572231 85.854614 
L 412.84562 87.508178 
L 414.119008 94.282066 
L 415.392397 88.959263 
L 416.665785 79.659003 
L 417.939174 72.967988 
L 419.212562 75.913807 
L 420.48595 76.196061 
L 421.759339 83.204355 
L 423.032727 79.409954 
" style="fill:none;opacity:0.6;stroke:#f86942;stroke-linecap:square;"/>
   </g>
   <g id="line2d_16">
    <path clip-path="url(#p5c29ad25e4)" d="M 296.967273 172.353927 
L 298.240661 177.762857 
L 299.51405 176.072175 
L 300.787438 175.301005 
L 302.060826 173.026726 
L 303.334215 175.190221 
L 304.607603 174.887209 
L 305.880992 177.185152 
L 307.15438 186.446713 
L 308.427769 191.851363 
L 309.701157 193.546724 
L 310.974545 186.012651 
L 312.247934 174.742762 
L 313.521322 172.107403 
L 314.794711 167.571957 
L 316.068099 169.808328 
L 317.341488 174.747607 
L 318.614876 172.040019 
L 319.888264 176.320187 
L 321.161653 178.20879 
L 322.435041 172.678639 
L 323.70843 171.459148 
L 324.981818 171.337784 
L 326.255207 170.208098 
L 327.528595 176.486444 
L 328.801983 176.472615 
L 330.075372 174.872137 
L 331.34876 177.18057 
L 332.622149 177.624191 
L 333.895537 178.659706 
L 335.168926 176.65602 
L 336.442314 171.202837 
L 337.715702 166.805583 
L 338.989091 166.489735 
L 340.262479 182.617445 
L 341.535868 183.741865 
L 342.809256 176.424981 
L 344.082645 174.022804 
L 345.356033 180.825302 
L 346.629421 179.561715 
L 347.90281 172.107471 
L 349.176198 177.3075 
L 350.449587 180.747679 
L 351.722975 174.519387 
L 352.996364 175.631194 
L 354.269752 176.640463 
L 355.54314 170.653346 
L 356.816529 167.028915 
L 358.089917 156.596149 
L 359.363306 157.024121 
L 360.636694 147.136159 
L 361.910083 147.553392 
L 363.183471 152.068316 
L 364.45686 157.082951 
L 365.730248 165.190915 
L 367.003636 171.185872 
L 368.277025 178.39797 
L 369.550413 175.882924 
L 370.823802 178.445076 
L 372.09719 167.788372 
L 373.370579 173.699107 
L 374.643967 175.700117 
L 375.917355 170.410536 
L 377.190744 168.587697 
L 378.464132 162.979189 
L 379.737521 166.648072 
L 381.010909 162.90083 
L 382.284298 168.653585 
L 383.557686 161.979765 
L 384.831074 167.181845 
L 386.104463 176.680727 
L 387.377851 175.207671 
L 388.65124 175.040675 
L 389.924628 181.622622 
L 391.198017 183.52297 
L 392.471405 190.939382 
L 393.744793 184.193493 
L 395.018182 181.1139 
L 396.29157 179.810702 
L 397.564959 173.294637 
L 398.838347 176.742849 
L 400.111736 181.797488 
L 401.385124 189.497621 
L 402.658512 191.840427 
L 403.931901 192.580871 
L 405.205289 203.189554 
L 406.478678 197.04005 
L 407.752066 202.797397 
L 409.025455 209.190238 
L 410.298843 209.538276 
L 411.572231 210.435355 
L 412.84562 204.32094 
L 414.119008 200.970047 
L 415.392397 194.183765 
L 416.665785 198.763774 
L 417.939174 193.520832 
L 419.212562 191.690815 
L 420.48595 190.818637 
L 421.759339 188.388175 
L 423.032727 197.63211 
" style="fill:none;stroke:#3dabb2;stroke-linecap:square;stroke-width:2;"/>
   </g>
   <g id="line2d_17">
    <path clip-path="url(#p5c29ad25e4)" d="M 423.032727 197.63211 
L 424.306116 202.655545 
L 425.579504 203.490125 
L 426.852893 196.021017 
L 428.126281 201.118025 
L 429.399669 197.527354 
L 430.673058 198.344296 
L 431.946446 200.871932 
L 433.219835 201.249745 
L 434.493223 206.508689 
L 435.766612 202.061279 
L 437.04 206.106797 
L 438.313388 211.910367 
L 439.586777 210.271574 
L 440.860165 213.903601 
L 442.133554 214.891028 
L 443.406942 209.190405 
L 444.680331 210.902174 
L 445.953719 218.739675 
L 447.227107 222.899898 
L 448.500496 222.580376 
L 449.773884 221.911193 
L 451.047273 226.569623 
L 452.320661 227.206687 
L 453.59405 228.236539 
L 454.867438 229.470751 
L 456.140826 221.546548 
L 457.414215 223.109983 
L 458.687603 225.855847 
L 459.960992 229.532143 
L 461.23438 238.152274 
L 462.507769 246.60238 
L 463.781157 247.834358 
L 465.054545 250.065381 
L 466.327934 247.510362 
L 467.601322 246.841786 
L 468.874711 249.355036 
L 470.148099 253.143813 
L 471.421488 251.933389 
L 472.694876 250.52082 
L 473.968264 247.048466 
L 475.241653 259.022859 
L 476.515041 259.775798 
L 477.78843 264.892526 
L 479.061818 263.952514 
L 480.335207 260.957725 
L 481.608595 259.087422 
L 482.881983 258.024442 
L 484.155372 262.178467 
L 485.42876 261.444843 
L 486.702149 260.451859 
L 487.975537 264.159167 
L 489.248926 269.269465 
L 490.522314 269.473565 
L 491.795702 264.630731 
L 493.069091 256.373969 
L 494.342479 260.266308 
L 495.615868 263.211296 
L 496.889256 272.980792 
L 498.162645 279.303597 
L 499.436033 280.387411 
L 500.709421 279.454779 
L 501.98281 281.723375 
L 503.256198 280.62873 
L 504.529587 273.44486 
L 505.802975 280.933384 
L 507.076364 287.334608 
L 508.349752 287.764249 
L 509.62314 295.273637 
L 510.896529 293.446966 
L 512.169917 288.07034 
L 513.443306 289.067815 
L 514.716694 299.691409 
L 515.990083 302.919733 
L 517.263471 302.224653 
L 518.53686 304.944732 
L 519.810248 304.274137 
L 521.083636 312.798238 
L 522.357025 310.510522 
L 523.630413 312.572752 
L 524.903802 309.700863 
L 526.17719 300.46398 
L 527.450579 302.179543 
L 528.723967 305.668186 
L 529.997355 298.778863 
L 531.270744 294.645451 
L 532.544132 292.424939 
L 533.817521 295.445406 
L 535.090909 295.117258 
L 536.364298 294.556716 
L 537.637686 294.396689 
L 538.911074 300.096231 
L 540.184463 302.607501 
L 541.457851 298.495718 
L 542.73124 301.266841 
L 544.004628 304.843681 
L 545.278017 309.778027 
L 546.551405 317.752066 
L 547.824793 312.412078 
L 549.098182 304.023262 
" style="fill:none;opacity:0.6;stroke:#f86942;stroke-linecap:square;"/>
   </g>
   <g id="line2d_18">
    <path clip-path="url(#p5c29ad25e4)" d="M 423.032727 197.63211 
L 424.306116 203.825438 
L 425.579504 190.03895 
L 426.852893 182.038653 
L 428.126281 179.967449 
L 429.399669 188.908109 
L 430.673058 183.682468 
L 431.946446 191.407563 
L 433.219835 198.577485 
L 434.493223 198.355029 
L 435.766612 193.76194 
L 437.04 189.296334 
L 438.313388 192.544935 
L 439.586777 191.284218 
L 440.860165 193.370758 
L 442.133554 200.821087 
L 443.406942 198.846568 
L 444.680331 198.641576 
L 445.953719 194.9782 
L 447.227107 198.619785 
L 448.500496 201.78417 
L 449.773884 206.951361 
L 451.047273 210.62468 
L 452.320661 214.026341 
L 453.59405 210.162854 
L 454.867438 204.963716 
L 456.140826 207.604549 
L 457.414215 215.518829 
L 458.687603 218.969187 
L 459.960992 218.107322 
L 461.23438 215.21787 
L 462.507769 216.84437 
L 463.781157 220.029812 
L 465.054545 223.494916 
L 466.327934 229.941202 
L 467.601322 230.487376 
L 468.874711 241.331889 
L 470.148099 240.202551 
L 471.421488 246.829405 
L 472.694876 244.617862 
L 473.968264 240.086488 
L 475.241653 247.753649 
L 476.515041 239.687748 
L 477.78843 239.032653 
L 479.061818 249.847301 
L 480.335207 255.589753 
L 481.608595 257.67557 
L 482.881983 261.586212 
L 484.155372 262.823544 
L 485.42876 263.69049 
L 486.702149 264.662341 
L 487.975537 255.593412 
L 489.248926 261.805097 
L 490.522314 266.582891 
L 491.795702 264.45511 
L 493.069091 255.087536 
L 494.342479 255.9801 
L 495.615868 246.497428 
L 496.889256 247.480818 
L 498.162645 232.861985 
L 499.436033 240.62298 
L 500.709421 239.356014 
L 501.98281 236.150694 
L 503.256198 238.855186 
L 504.529587 238.073733 
L 505.802975 237.881422 
L 507.076364 234.491078 
L 508.349752 239.191904 
L 509.62314 240.564999 
L 510.896529 240.535663 
L 512.169917 246.912787 
L 513.443306 236.443739 
L 514.716694 230.946985 
L 515.990083 234.188475 
L 517.263471 236.725936 
L 518.53686 230.921021 
L 519.810248 216.727163 
L 521.083636 218.776893 
L 522.357025 221.481662 
L 523.630413 217.261026 
L 524.903802 213.778526 
L 526.17719 217.250776 
L 527.450579 217.129854 
L 528.723967 215.908031 
L 529.997355 210.119654 
L 531.270744 207.140817 
L 532.544132 208.982152 
L 533.817521 212.86344 
L 535.090909 216.691281 
L 536.364298 203.210322 
L 537.637686 195.185683 
L 538.911074 190.804075 
L 540.184463 180.542326 
L 541.457851 181.718309 
L 542.73124 180.065883 
L 544.004628 179.768052 
L 545.278017 183.619001 
L 546.551405 178.966575 
L 547.824793 189.631656 
L 549.098182 191.855915 
" style="fill:none;opacity:0.6;stroke:#f86942;stroke-linecap:square;"/>
   </g>
   <g id="line2d_19">
    <path clip-path="url(#p5c29ad25e4)" d="M 423.032727 197.63211 
L 424.306116 188.38034 
L 425.579504 180.942446 
L 426.852893 180.589953 
L 428.126281 186.207625 
L 429.399669 182.898319 
L 430.673058 191.489724 
L 431.946446 197.646812 
L 433.219835 205.853162 
L 434.493223 205.635128 
L 435.766612 208.624339 
L 437.04 206.359188 
L 438.313388 216.302502 
L 439.586777 218.228964 
L 440.860165 226.669572 
L 442.133554 232.95956 
L 443.406942 241.380508 
L 444.680331 253.244446 
L 445.953719 255.042305 
L 447.227107 253.931592 
L 448.500496 250.55214 
L 449.773884 254.434946 
L 451.047273 256.641811 
L 452.320661 251.921623 
L 453.59405 253.068123 
L 454.867438 253.923494 
L 456.140826 254.940815 
L 457.414215 246.007611 
L 458.687603 250.855274 
L 459.960992 259.741513 
L 461.23438 250.194117 
L 462.507769 244.689208 
L 463.781157 245.69754 
L 465.054545 248.604695 
L 466.327934 247.665211 
L 467.601322 248.145105 
L 468.874711 243.945725 
L 470.148099 243.578411 
L 471.421488 238.844913 
L 472.694876 243.022868 
L 473.968264 252.677845 
L 475.241653 255.870539 
L 476.515041 252.830357 
L 477.78843 254.653656 
L 479.061818 254.435323 
L 480.335207 256.451183 
L 481.608595 253.332624 
L 482.881983 252.148291 
L 484.155372 246.677093 
L 485.42876 252.07063 
L 486.702149 254.035123 
L 487.975537 258.943457 
L 489.248926 256.642264 
L 490.522314 264.645435 
L 491.795702 267.798166 
L 493.069091 260.376515 
L 494.342479 256.042833 
L 495.615868 255.222092 
L 496.889256 254.698872 
L 498.162645 246.945432 
L 499.436033 247.192688 
L 500.709421 243.22105 
L 501.98281 249.917954 
L 503.256198 250.48454 
L 504.529587 251.419387 
L 505.802975 250.514045 
L 507.076364 246.335897 
L 508.349752 242.277259 
L 509.62314 246.433753 
L 510.896529 239.663836 
L 512.169917 235.816374 
L 513.443306 236.955567 
L 514.716694 235.431206 
L 515.990083 242.103135 
L 517.263471 240.068639 
L 518.53686 235.186481 
L 519.810248 239.7606 
L 521.083636 239.874982 
L 522.357025 237.493834 
L 523.630413 236.320408 
L 524.903802 248.381637 
L 526.17719 253.894456 
L 527.450579 254.664736 
L 528.723967 257.993388 
L 529.997355 252.23662 
L 531.270744 242.332453 
L 532.544132 240.8419 
L 533.817521 243.989555 
L 535.090909 241.027365 
L 536.364298 238.97488 
L 537.637686 230.953786 
L 538.911074 232.355126 
L 540.184463 230.927795 
L 541.457851 219.173041 
L 542.73124 213.522048 
L 544.004628 207.085459 
L 545.278017 205.270402 
L 546.551405 185.333582 
L 547.824793 193.380842 
L 549.098182 195.064927 
" style="fill:none;opacity:0.6;stroke:#f86942;stroke-linecap:square;"/>
   </g>
   <g id="line2d_20">
    <path clip-path="url(#p5c29ad25e4)" d="M 423.032727 197.63211 
L 424.306116 199.641186 
L 425.579504 195.576749 
L 426.852893 196.133761 
L 428.126281 198.087866 
L 429.399669 197.27595 
L 430.673058 178.363525 
L 431.946446 172.616042 
L 433.219835 166.244817 
L 434.493223 169.397861 
L 435.766612 163.614547 
L 437.04 164.875975 
L 438.313388 158.147915 
L 439.586777 149.603884 
L 440.860165 141.186342 
L 442.133554 143.706849 
L 443.406942 140.941361 
L 444.680331 129.875838 
L 445.953719 131.907378 
L 447.227107 130.155903 
L 448.500496 125.023132 
L 449.773884 135.317836 
L 451.047273 140.261548 
L 452.320661 140.460423 
L 453.59405 137.552243 
L 454.867438 140.398398 
L 456.140826 138.744339 
L 457.414215 136.181698 
L 458.687603 139.638895 
L 459.960992 130.983321 
L 461.23438 132.06003 
L 462.507769 128.129877 
L 463.781157 128.104334 
L 465.054545 129.603533 
L 466.327934 130.19558 
L 467.601322 131.367931 
L 468.874711 129.706308 
L 470.148099 129.039105 
L 471.421488 130.534422 
L 472.694876 128.967522 
L 473.968264 123.512334 
L 475.241653 128.155177 
L 476.515041 133.443395 
L 477.78843 143.177457 
L 479.061818 141.22638 
L 480.335207 139.857206 
L 481.608595 130.145702 
L 482.881983 127.643395 
L 484.155372 128.407292 
L 485.42876 129.309992 
L 486.702149 129.770944 
L 487.975537 131.96049 
L 489.248926 134.482282 
L 490.522314 128.184486 
L 491.795702 137.456872 
L 493.069091 142.312626 
L 494.342479 149.375232 
L 495.615868 149.605332 
L 496.889256 145.361493 
L 498.162645 150.301441 
L 499.436033 151.481358 
L 500.709421 147.12692 
L 501.98281 143.47845 
L 503.256198 144.648816 
L 504.529587 141.807705 
L 505.802975 134.660839 
L 507.076364 131.906 
L 508.349752 127.503194 
L 509.62314 130.846007 
L 510.896529 130.288945 
L 512.169917 129.650943 
L 513.443306 131.801127 
L 514.716694 133.298993 
L 515.990083 134.24868 
L 517.263471 137.798297 
L 518.53686 138.310485 
L 519.810248 130.108597 
L 521.083636 134.051603 
L 522.357025 133.258235 
L 523.630413 136.885204 
L 524.903802 132.272477 
L 526.17719 139.057714 
L 527.450579 141.978446 
L 528.723967 141.43688 
L 529.997355 129.093465 
L 531.270744 139.246359 
L 532.544132 138.934212 
L 533.817521 133.833817 
L 535.090909 135.571819 
L 536.364298 137.472318 
L 537.637686 137.224283 
L 538.911074 141.846861 
L 540.184463 144.159997 
L 541.457851 139.148139 
L 542.73124 134.900856 
L 544.004628 131.338183 
L 545.278017 132.639228 
L 546.551405 131.182244 
L 547.824793 123.585547 
L 549.098182 130.880509 
" style="fill:none;opacity:0.6;stroke:#f86942;stroke-linecap:square;"/>
   </g>
   <g id="line2d_21">
    <path clip-path="url(#p5c29ad25e4)" d="M 423.032727 197.63211 
L 424.306116 196.250051 
L 425.579504 201.503761 
L 426.852893 202.67867 
L 428.126281 201.198705 
L 429.399669 200.761402 
L 430.673058 204.365796 
L 431.946446 201.294804 
L 433.219835 196.529153 
L 434.493223 193.886394 
L 435.766612 183.55892 
L 437.04 180.639759 
L 438.313388 182.212388 
L 439.586777 187.376353 
L 440.860165 186.629052 
L 442.133554 190.472129 
L 443.406942 182.473279 
L 444.680331 189.61894 
L 445.953719 193.375516 
L 447.227107 193.158126 
L 448.500496 190.328051 
L 449.773884 192.050768 
L 451.047273 192.182727 
L 452.320661 183.339937 
L 453.59405 180.101429 
L 454.867438 186.610492 
L 456.140826 185.994899 
L 457.414215 186.14717 
L 458.687603 178.517561 
L 459.960992 178.254694 
L 461.23438 177.437966 
L 462.507769 178.226735 
L 463.781157 173.754392 
L 465.054545 173.379951 
L 466.327934 170.079195 
L 467.601322 172.229575 
L 468.874711 169.11384 
L 470.148099 169.563584 
L 471.421488 161.828098 
L 472.694876 158.255306 
L 473.968264 147.055016 
L 475.241653 141.221469 
L 476.515041 150.006355 
L 477.78843 150.920779 
L 479.061818 147.759768 
L 480.335207 151.038442 
L 481.608595 154.389601 
L 482.881983 159.625791 
L 484.155372 154.850947 
L 485.42876 153.234804 
L 486.702149 154.476892 
L 487.975537 156.728407 
L 489.248926 152.490515 
L 490.522314 152.30719 
L 491.795702 154.962996 
L 493.069091 158.137725 
L 494.342479 163.612786 
L 495.615868 158.345054 
L 496.889256 155.677173 
L 498.162645 158.67623 
L 499.436033 151.241647 
L 500.709421 155.622855 
L 501.98281 152.856431 
L 503.256198 157.80965 
L 504.529587 167.573486 
L 505.802975 162.535218 
L 507.076364 165.60311 
L 508.349752 156.673323 
L 509.62314 159.56852 
L 510.896529 164.430809 
L 512.169917 167.412892 
L 513.443306 162.658133 
L 514.716694 170.559763 
L 515.990083 170.636626 
L 517.263471 180.943543 
L 518.53686 171.986041 
L 519.810248 174.281822 
L 521.083636 169.393498 
L 522.357025 163.04922 
L 523.630413 156.757604 
L 524.903802 161.534771 
L 526.17719 162.506504 
L 527.450579 158.826458 
L 528.723967 146.743096 
L 529.997355 144.140015 
L 531.270744 131.209187 
L 532.544132 128.091101 
L 533.817521 128.202282 
L 535.090909 136.510565 
L 536.364298 130.867766 
L 537.637686 135.13057 
L 538.911074 143.873184 
L 540.184463 145.875835 
L 541.457851 148.080951 
L 542.73124 144.996177 
L 544.004628 149.895853 
L 545.278017 147.408345 
L 546.551405 139.228115 
L 547.824793 143.595973 
L 549.098182 144.586718 
" style="fill:none;opacity:0.6;stroke:#f86942;stroke-linecap:square;"/>
   </g>
   <g id="line2d_22">
    <path clip-path="url(#p5c29ad25e4)" d="M 423.032727 197.63211 
L 424.306116 193.688444 
L 425.579504 194.04839 
L 426.852893 196.8668 
L 428.126281 198.13845 
L 429.399669 204.03392 
L 430.673058 208.661705 
L 431.946446 211.178366 
L 433.219835 219.786261 
L 434.493223 232.719302 
L 435.766612 231.239821 
L 437.04 234.920892 
L 438.313388 243.916783 
L 439.586777 247.597795 
L 440.860165 243.987613 
L 442.133554 244.53976 
L 443.406942 244.196171 
L 444.680331 241.85111 
L 445.953719 251.322923 
L 447.227107 258.661932 
L 448.500496 269.348279 
L 449.773884 265.676383 
L 451.047273 269.060063 
L 452.320661 275.434519 
L 453.59405 285.522631 
L 454.867438 281.500512 
L 456.140826 278.938209 
L 457.414215 282.596192 
L 458.687603 281.30201 
L 459.960992 275.955135 
L 461.23438 271.629726 
L 462.507769 276.676266 
L 463.781157 276.559471 
L 465.054545 280.72512 
L 466.327934 275.147717 
L 467.601322 270.64152 
L 468.874711 280.631169 
L 470.148099 281.421909 
L 471.421488 291.273778 
L 472.694876 282.097294 
L 473.968264 272.256305 
L 475.241653 269.677012 
L 476.515041 272.490422 
L 477.78843 274.893758 
L 479.061818 278.815083 
L 480.335207 280.305377 
L 481.608595 286.532047 
L 482.881983 289.10701 
L 484.155372 289.150455 
L 485.42876 280.207674 
L 486.702149 289.220477 
L 487.975537 288.48476 
L 489.248926 285.377067 
L 490.522314 288.527687 
L 491.795702 285.827006 
L 493.069091 290.965191 
L 494.342479 291.915778 
L 495.615868 287.762955 
L 496.889256 286.87289 
L 498.162645 288.68207 
L 499.436033 280.641194 
L 500.709421 278.172165 
L 501.98281 278.890719 
L 503.256198 279.321121 
L 504.529587 268.639684 
L 505.802975 266.81648 
L 507.076364 262.362847 
L 508.349752 262.980169 
L 509.62314 258.349635 
L 510.896529 252.625417 
L 512.169917 252.036392 
L 513.443306 253.597799 
L 514.716694 243.397495 
L 515.990083 246.055899 
L 517.263471 248.655711 
L 518.53686 250.997048 
L 519.810248 258.074786 
L 521.083636 262.673431 
L 522.357025 262.914548 
L 523.630413 262.842987 
L 524.903802 256.004034 
L 526.17719 254.512097 
L 527.450579 253.083273 
L 528.723967 247.464743 
L 529.997355 252.041134 
L 531.270744 254.355971 
L 532.544132 254.772052 
L 533.817521 260.806321 
L 535.090909 268.818164 
L 536.364298 261.516082 
L 537.637686 265.034946 
L 538.911074 266.127834 
L 540.184463 259.601449 
L 541.457851 247.625133 
L 542.73124 247.158283 
L 544.004628 244.626102 
L 545.278017 239.168999 
L 546.551405 242.107698 
L 547.824793 237.941174 
L 549.098182 240.22886 
" style="fill:none;opacity:0.6;stroke:#f86942;stroke-linecap:square;"/>
   </g>
   <g id="line2d_23">
    <path clip-path="url(#p5c29ad25e4)" d="M 423.032727 197.63211 
L 424.306116 204.965613 
L 425.579504 192.801906 
L 426.852893 199.260201 
L 428.126281 205.792076 
L 429.399669 207.445726 
L 430.673058 213.574221 
L 431.946446 214.650643 
L 433.219835 206.989658 
L 434.493223 204.997706 
L 435.766612 204.619989 
L 437.04 202.924844 
L 438.313388 203.913383 
L 439.586777 196.639845 
L 440.860165 187.105858 
L 442.133554 185.687009 
L 443.406942 188.917787 
L 444.680331 182.047372 
L 445.953719 174.460032 
L 447.227107 168.155534 
L 448.500496 160.86868 
L 449.773884 164.866528 
L 451.047273 166.894433 
L 452.320661 172.215258 
L 453.59405 177.124179 
L 454.867438 178.352472 
L 456.140826 174.749152 
L 457.414215 166.696884 
L 458.687603 167.684383 
L 459.960992 160.401584 
L 461.23438 154.246932 
L 462.507769 156.038471 
L 463.781157 154.767775 
L 465.054545 154.640624 
L 466.327934 158.952295 
L 467.601322 158.535829 
L 468.874711 155.987408 
L 470.148099 159.564236 
L 471.421488 156.477747 
L 472.694876 159.718443 
L 473.968264 156.984622 
L 475.241653 153.902325 
L 476.515041 154.766516 
L 477.78843 145.118981 
L 479.061818 146.48686 
L 480.335207 152.845583 
L 481.608595 154.266549 
L 482.881983 162.344449 
L 484.155372 157.701708 
L 485.42876 158.977005 
L 486.702149 151.063235 
L 487.975537 150.471727 
L 489.248926 151.540913 
L 490.522314 151.889165 
L 491.795702 155.581086 
L 493.069091 151.996966 
L 494.342479 138.977585 
L 495.615868 137.614517 
L 496.889256 140.588672 
L 498.162645 141.569989 
L 499.436033 147.514499 
L 500.709421 141.642288 
L 501.98281 138.796003 
L 503.256198 139.342003 
L 504.529587 142.496672 
L 505.802975 140.616895 
L 507.076364 146.10811 
L 508.349752 151.742921 
L 509.62314 143.387896 
L 510.896529 147.833462 
L 512.169917 154.084907 
L 513.443306 149.565468 
L 514.716694 149.788297 
L 515.990083 149.127504 
L 517.263471 150.564784 
L 518.53686 147.542891 
L 519.810248 151.515692 
L 521.083636 150.575443 
L 522.357025 153.75682 
L 523.630413 144.370474 
L 524.903802 149.772187 
L 526.17719 140.523524 
L 527.450579 137.898704 
L 528.723967 144.765191 
L 529.997355 154.045651 
L 531.270744 155.017708 
L 532.544132 155.95612 
L 533.817521 144.124494 
L 535.090909 148.631909 
L 536.364298 155.197183 
L 537.637686 159.682615 
L 538.911074 148.016179 
L 540.184463 145.72031 
L 541.457851 143.847791 
L 542.73124 147.350481 
L 544.004628 148.380288 
L 545.278017 152.734766 
L 546.551405 142.935782 
L 547.824793 133.628321 
L 549.098182 132.696854 
" style="fill:none;opacity:0.6;stroke:#f86942;stroke-linecap:square;"/>
   </g>
   <g id="line2d_24">
    <path clip-path="url(#p5c29ad25e4)" d="M 423.032727 197.63211 
L 424.306116 199.655425 
L 425.579504 205.834107 
L 426.852893 208.786874 
L 428.126281 204.704633 
L 429.399669 206.099241 
L 430.673058 204.483151 
L 431.946446 203.777018 
L 433.219835 201.009819 
L 434.493223 195.592735 
L 435.766612 199.5905 
L 437.04 207.514098 
L 438.313388 196.854303 
L 439.586777 199.045475 
L 440.860165 193.033707 
L 442.133554 194.271521 
L 443.406942 197.786831 
L 444.680331 200.352407 
L 445.953719 203.456341 
L 447.227107 209.25292 
L 448.500496 213.84627 
L 449.773884 212.229837 
L 451.047273 218.31248 
L 452.320661 227.727533 
L 453.59405 216.110775 
L 454.867438 212.608809 
L 456.140826 212.525348 
L 457.414215 211.388603 
L 458.687603 214.918174 
L 459.960992 213.264938 
L 461.23438 217.451521 
L 462.507769 222.627791 
L 463.781157 223.798723 
L 465.054545 220.277114 
L 466.327934 221.255346 
L 467.601322 222.965603 
L 468.874711 215.847787 
L 470.148099 223.50248 
L 471.421488 228.945649 
L 472.694876 234.739365 
L 473.968264 232.976795 
L 475.241653 235.223939 
L 476.515041 241.292775 
L 477.78843 246.41887 
L 479.061818 245.622486 
L 480.335207 248.021838 
L 481.608595 247.695787 
L 482.881983 243.21018 
L 484.155372 240.986431 
L 485.42876 246.982051 
L 486.702149 259.878858 
L 487.975537 261.991477 
L 489.248926 260.68699 
L 490.522314 251.145536 
L 491.795702 250.102805 
L 493.069091 247.319021 
L 494.342479 251.540568 
L 495.615868 254.706055 
L 496.889256 252.601297 
L 498.162645 250.190644 
L 499.436033 242.968125 
L 500.709421 239.917753 
L 501.98281 238.094898 
L 503.256198 238.132941 
L 504.529587 237.833363 
L 505.802975 235.01637 
L 507.076364 236.695803 
L 508.349752 228.807721 
L 509.62314 234.322732 
L 510.896529 234.997353 
L 512.169917 241.847905 
L 513.443306 240.999228 
L 514.716694 242.500011 
L 515.990083 231.009782 
L 517.263471 234.741992 
L 518.53686 234.347947 
L 519.810248 232.254534 
L 521.083636 228.737664 
L 522.357025 233.749011 
L 523.630413 238.150354 
L 524.903802 234.290104 
L 526.17719 237.048943 
L 527.450579 225.69549 
L 528.723967 222.286893 
L 529.997355 223.714013 
L 531.270744 223.283096 
L 532.544132 223.428483 
L 533.817521 223.316438 
L 535.090909 223.216707 
L 536.364298 219.023973 
L 537.637686 213.434742 
L 538.911074 204.359808 
L 540.184463 196.915229 
L 541.457851 203.31592 
L 542.73124 199.668599 
L 544.004628 193.024256 
L 545.278017 192.451607 
L 546.551405 191.009587 
L 547.824793 192.382817 
L 549.098182 190.143335 
" style="fill:none;opacity:0.6;stroke:#f86942;stroke-linecap:square;"/>
   </g>
   <g id="line2d_25">
    <path clip-path="url(#p5c29ad25e4)" d="M 423.032727 197.63211 
L 424.306116 198.093007 
L 425.579504 197.738671 
L 426.852893 194.604998 
L 428.126281 189.43413 
L 429.399669 184.072499 
L 430.673058 180.386333 
L 431.946446 180.525981 
L 433.219835 178.139465 
L 434.493223 175.558451 
L 435.766612 172.562721 
L 437.04 175.21437 
L 438.313388 180.767636 
L 439.586777 182.657164 
L 440.860165 183.393137 
L 442.133554 188.428801 
L 443.406942 188.958701 
L 444.680331 189.085544 
L 445.953719 183.75585 
L 447.227107 186.788486 
L 448.500496 179.357206 
L 449.773884 186.518775 
L 451.047273 177.750739 
L 452.320661 171.917336 
L 453.59405 169.588764 
L 454.867438 168.190465 
L 456.140826 168.282323 
L 457.414215 163.675275 
L 458.687603 149.774872 
L 459.960992 148.666714 
L 461.23438 142.757129 
L 462.507769 147.994313 
L 463.781157 146.155148 
L 465.054545 152.70543 
L 466.327934 153.348737 
L 467.601322 152.22753 
L 468.874711 145.470563 
L 470.148099 145.490261 
L 471.421488 148.087952 
L 472.694876 151.192193 
L 473.968264 151.959053 
L 475.241653 138.48286 
L 476.515041 143.177829 
L 477.78843 140.70616 
L 479.061818 141.837698 
L 480.335207 138.395984 
L 481.608595 144.160225 
L 482.881983 147.589217 
L 484.155372 152.67493 
L 485.42876 157.122152 
L 486.702149 148.149787 
L 487.975537 152.71574 
L 489.248926 157.505057 
L 490.522314 157.419346 
L 491.795702 157.73587 
L 493.069091 161.477691 
L 494.342479 147.011557 
L 495.615868 145.971006 
L 496.889256 153.027186 
L 498.162645 153.197402 
L 499.436033 155.902945 
L 500.709421 156.313687 
L 501.98281 163.325347 
L 503.256198 166.848778 
L 504.529587 167.387871 
L 505.802975 156.574794 
L 507.076364 163.079907 
L 508.349752 156.882624 
L 509.62314 155.843158 
L 510.896529 158.413353 
L 512.169917 147.005048 
L 513.443306 145.665793 
L 514.716694 139.639611 
L 515.990083 145.696154 
L 517.263471 147.580668 
L 518.53686 146.597312 
L 519.810248 143.972062 
L 521.083636 143.405627 
L 522.357025 144.206553 
L 523.630413 149.719349 
L 524.903802 147.296219 
L 526.17719 144.08607 
L 527.450579 147.088177 
L 528.723967 144.635782 
L 529.997355 143.965154 
L 531.270744 142.292304 
L 532.544132 137.57031 
L 533.817521 139.261033 
L 535.090909 132.023453 
L 536.364298 133.135017 
L 537.637686 141.098174 
L 538.911074 134.368782 
L 540.184463 133.39932 
L 541.457851 130.742104 
L 542.73124 131.011281 
L 544.004628 123.771145 
L 545.278017 118.758831 
L 546.551405 123.138579 
L 547.824793 128.600784 
L 549.098182 129.450944 
" style="fill:none;stroke:#3dabb2;stroke-linecap:square;stroke-width:2;"/>
   </g>
   <g id="line2d_26">
    <path clip-path="url(#p5c29ad25e4)" d="M 549.098182 129.450944 
L 550.37157 134.316164 
L 551.644959 132.035707 
L 552.918347 131.071229 
L 554.191736 128.244202 
L 555.465124 134.665867 
L 556.738512 135.37365 
L 558.011901 131.140021 
L 559.285289 140.331897 
L 560.558678 140.190109 
L 561.832066 141.323752 
L 563.105455 142.076339 
L 564.378843 139.878371 
L 565.652231 144.896966 
L 566.92562 140.439329 
L 568.199008 138.746442 
L 569.472397 139.638184 
L 570.745785 139.616436 
L 572.019174 130.595829 
L 573.292562 126.538587 
L 574.56595 129.843341 
L 575.839339 124.644491 
L 577.112727 125.377452 
L 578.386116 121.364643 
L 579.659504 126.210254 
L 580.932893 123.402505 
L 582.206281 123.591747 
L 583.479669 130.781924 
L 584.753058 132.678674 
L 586.026446 134.652325 
L 587.299835 136.345301 
L 588.573223 139.291353 
L 589.846612 133.126886 
L 591.12 130.089191 
L 592.393388 140.48995 
L 593.666777 137.027458 
L 594.940165 141.944889 
L 596.213554 150.245549 
L 597.486942 146.035747 
L 598.760331 148.769648 
L 600.033719 142.57388 
L 601.307107 144.548586 
L 602.580496 139.589435 
L 603.853884 140.053269 
L 605.127273 130.281593 
L 606.400661 135.630837 
L 607.67405 136.116071 
L 608.947438 139.20511 
L 610.220826 151.62607 
L 611.494215 150.574789 
L 612.767603 153.144596 
L 614.040992 149.554388 
L 615.31438 145.479247 
L 616.587769 145.264676 
L 617.861157 140.104644 
L 619.134545 136.563377 
L 620.407934 137.104696 
L 621.681322 143.331162 
L 622.954711 138.991285 
L 624.228099 141.875238 
L 625.501488 142.179075 
L 626.774876 148.112795 
L 628.048264 154.307943 
L 629.321653 146.493722 
L 630.595041 149.271907 
L 631.86843 138.606857 
L 633.141818 143.141502 
L 634.415207 144.192591 
L 635.688595 141.807807 
L 636.961983 128.823651 
L 638.235372 131.092931 
L 639.50876 131.78315 
L 640.782149 135.568308 
L 642.055537 140.501475 
L 643.328926 137.532237 
L 644.602314 133.353776 
L 645.875702 131.533304 
L 647.149091 132.004651 
L 648.422479 131.033377 
L 649.695868 128.102926 
L 650.969256 128.243925 
L 652.242645 134.079102 
L 653.516033 134.0076 
L 654.789421 141.116664 
L 656.06281 141.571768 
L 657.336198 148.26945 
L 658.609587 141.672595 
L 659.882975 141.962595 
L 661.156364 145.790748 
L 662.429752 144.27797 
L 663.70314 149.951904 
L 664.976529 142.688015 
L 666.249917 142.699614 
L 667.523306 138.864041 
L 668.796694 140.012831 
L 670.070083 127.72114 
L 671.343471 119.44242 
L 672.61686 122.079049 
L 673.890248 115.216545 
L 675.163636 114.797064 
" style="fill:none;opacity:0.6;stroke:#f86942;stroke-linecap:square;"/>
   </g>
   <g id="line2d_27">
    <path clip-path="url(#p5c29ad25e4)" d="M 549.098182 129.450944 
L 550.37157 124.991617 
L 551.644959 112.54967 
L 552.918347 107.87876 
L 554.191736 109.331624 
L 555.465124 104.82003 
L 556.738512 113.940924 
L 558.011901 111.544007 
L 559.285289 114.568586 
L 560.558678 112.596821 
L 561.832066 112.369204 
L 563.105455 116.936248 
L 564.378843 100.92584 
L 565.652231 104.577332 
L 566.92562 106.733613 
L 568.199008 113.143463 
L 569.472397 110.131337 
L 570.745785 119.862944 
L 572.019174 120.437504 
L 573.292562 119.798092 
L 574.56595 120.546569 
L 575.839339 117.74404 
L 577.112727 115.008933 
L 578.386116 107.019824 
L 579.659504 111.446804 
L 580.932893 113.54302 
L 582.206281 109.724098 
L 583.479669 114.281685 
L 584.753058 112.816955 
L 586.026446 112.92237 
L 587.299835 110.631626 
L 588.573223 115.027822 
L 589.846612 115.349389 
L 591.12 121.082692 
L 592.393388 123.579515 
L 593.666777 126.077403 
L 594.940165 133.662143 
L 596.213554 135.443296 
L 597.486942 132.943885 
L 598.760331 138.749385 
L 600.033719 136.229033 
L 601.307107 137.016767 
L 602.580496 132.209574 
L 603.853884 133.304711 
L 605.127273 135.057002 
L 606.400661 141.465903 
L 607.67405 142.833367 
L 608.947438 134.564272 
L 610.220826 128.477156 
L 611.494215 130.880028 
L 612.767603 132.034349 
L 614.040992 127.720529 
L 615.31438 127.533871 
L 616.587769 126.214928 
L 617.861157 123.980442 
L 619.134545 131.325823 
L 620.407934 138.67618 
L 621.681322 146.501014 
L 622.954711 150.469366 
L 624.228099 153.195769 
L 625.501488 159.756696 
L 626.774876 164.67615 
L 628.048264 163.320778 
L 629.321653 160.869947 
L 630.595041 160.726697 
L 631.86843 166.604891 
L 633.141818 164.022656 
L 634.415207 164.404694 
L 635.688595 161.756628 
L 636.961983 147.61999 
L 638.235372 146.787827 
L 639.50876 153.771425 
L 640.782149 152.944911 
L 642.055537 150.2044 
L 643.328926 147.947696 
L 644.602314 153.752078 
L 645.875702 157.66836 
L 647.149091 157.129014 
L 648.422479 150.601954 
L 649.695868 152.187091 
L 650.969256 156.780926 
L 652.242645 149.779611 
L 653.516033 150.420019 
L 654.789421 145.193559 
L 656.06281 151.428134 
L 657.336198 154.283406 
L 658.609587 150.7254 
L 659.882975 143.512048 
L 661.156364 143.318131 
L 662.429752 145.801187 
L 663.70314 141.120094 
L 664.976529 140.494711 
L 666.249917 138.247886 
L 667.523306 131.941438 
L 668.796694 125.801982 
L 670.070083 122.663997 
L 671.343471 132.237338 
L 672.61686 137.928374 
L 673.890248 147.724253 
L 675.163636 151.428414 
" style="fill:none;opacity:0.6;stroke:#f86942;stroke-linecap:square;"/>
   </g>
   <g id="line2d_28">
    <path clip-path="url(#p5c29ad25e4)" d="M 549.098182 129.450944 
L 550.37157 116.389252 
L 551.644959 118.592765 
L 552.918347 119.849446 
L 554.191736 119.577516 
L 555.465124 117.459375 
L 556.738512 125.411197 
L 558.011901 124.121175 
L 559.285289 124.498252 
L 560.558678 123.694373 
L 561.832066 122.52757 
L 563.105455 122.321306 
L 564.378843 123.261039 
L 565.652231 114.984105 
L 566.92562 112.807371 
L 568.199008 111.19654 
L 569.472397 104.234986 
L 570.745785 97.919773 
L 572.019174 102.675821 
L 573.292562 101.081407 
L 574.56595 95.942465 
L 575.839339 85.120713 
L 577.112727 91.532525 
L 578.386116 93.206914 
L 579.659504 96.610908 
L 580.932893 84.639592 
L 582.206281 84.961062 
L 583.479669 84.273527 
L 584.753058 91.233352 
L 586.026446 80.429998 
L 587.299835 81.510702 
L 588.573223 77.108186 
L 589.846612 83.691951 
L 591.12 80.288099 
L 592.393388 82.923894 
L 593.666777 86.738933 
L 594.940165 87.933373 
L 596.213554 85.647525 
L 597.486942 77.070188 
L 598.760331 74.129517 
L 600.033719 79.169794 
L 601.307107 76.70856 
L 602.580496 73.038971 
L 603.853884 71.520215 
L 605.127273 74.886978 
L 606.400661 80.619049 
L 607.67405 87.105618 
L 608.947438 85.201625 
L 610.220826 88.877208 
L 611.494215 85.527561 
L 612.767603 86.334088 
L 614.040992 83.504369 
L 615.31438 86.788941 
L 616.587769 83.126943 
L 617.861157 84.06319 
L 619.134545 93.835862 
L 620.407934 95.301402 
L 621.681322 91.121742 
L 622.954711 100.489571 
L 624.228099 94.901459 
L 625.501488 94.368516 
L 626.774876 85.767128 
L 628.048264 86.363689 
L 629.321653 98.243179 
L 630.595041 98.073753 
L 631.86843 98.440725 
L 633.141818 98.899922 
L 634.415207 105.423076 
L 635.688595 102.654739 
L 636.961983 101.1946 
L 638.235372 104.233266 
L 639.50876 105.157161 
L 640.782149 111.058812 
L 642.055537 109.871075 
L 643.328926 107.834512 
L 644.602314 103.391117 
L 645.875702 106.60741 
L 647.149091 104.940642 
L 648.422479 98.570197 
L 649.695868 93.604836 
L 650.969256 90.463995 
L 652.242645 84.185595 
L 653.516033 81.772596 
L 654.789421 81.427203 
L 656.06281 80.297162 
L 657.336198 84.662189 
L 658.609587 85.66801 
L 659.882975 86.703079 
L 661.156364 80.261746 
L 662.429752 76.655843 
L 663.70314 79.995751 
L 664.976529 70.996625 
L 666.249917 70.965261 
L 667.523306 66.090929 
L 668.796694 58.385339 
L 670.070083 53.118878 
L 671.343471 55.667755 
L 672.61686 52.625209 
L 673.890248 54.679319 
L 675.163636 57.411767 
" style="fill:none;opacity:0.6;stroke:#f86942;stroke-linecap:square;"/>
   </g>
   <g id="line2d_29">
    <path clip-path="url(#p5c29ad25e4)" d="M 549.098182 129.450944 
L 550.37157 129.454285 
L 551.644959 133.811146 
L 552.918347 128.471257 
L 554.191736 126.431772 
L 555.465124 127.843338 
L 556.738512 130.035797 
L 558.011901 134.42331 
L 559.285289 127.511363 
L 560.558678 134.595946 
L 561.832066 138.300566 
L 563.105455 144.007361 
L 564.378843 147.049664 
L 565.652231 153.849277 
L 566.92562 147.603326 
L 568.199008 139.547473 
L 569.472397 135.800128 
L 570.745785 144.395379 
L 572.019174 145.258596 
L 573.292562 148.02491 
L 574.56595 147.280523 
L 575.839339 140.989496 
L 577.112727 134.280145 
L 578.386116 131.801504 
L 579.659504 138.670894 
L 580.932893 138.0812 
L 582.206281 139.989705 
L 583.479669 142.791843 
L 584.753058 138.937288 
L 586.026446 141.905291 
L 587.299835 142.185006 
L 588.573223 146.494287 
L 589.846612 137.174895 
L 591.12 142.237111 
L 592.393388 150.829495 
L 593.666777 150.829135 
L 594.940165 147.133378 
L 596.213554 150.711803 
L 597.486942 151.589677 
L 598.760331 145.764568 
L 600.033719 150.892263 
L 601.307107 155.687379 
L 602.580496 158.30868 
L 603.853884 155.549928 
L 605.127273 156.841237 
L 606.400661 152.718409 
L 607.67405 151.529127 
L 608.947438 156.357232 
L 610.220826 155.740381 
L 611.494215 157.964565 
L 612.767603 161.891919 
L 614.040992 154.078267 
L 615.31438 144.181659 
L 616.587769 146.584738 
L 617.861157 142.67285 
L 619.134545 142.658686 
L 620.407934 144.321018 
L 621.681322 141.0351 
L 622.954711 146.283756 
L 624.228099 140.762294 
L 625.501488 135.689221 
L 626.774876 138.819305 
L 628.048264 131.326639 
L 629.321653 137.843032 
L 630.595041 136.46841 
L 631.86843 131.408255 
L 633.141818 121.69298 
L 634.415207 111.395795 
L 635.688595 112.701694 
L 636.961983 115.967908 
L 638.235372 113.595625 
L 639.50876 112.90246 
L 640.782149 117.695827 
L 642.055537 120.517556 
L 643.328926 117.260649 
L 644.602314 111.231011 
L 645.875702 107.465993 
L 647.149091 98.786727 
L 648.422479 88.652772 
L 649.695868 95.44981 
L 650.969256 99.159828 
L 652.242645 95.007791 
L 653.516033 98.064584 
L 654.789421 110.279033 
L 656.06281 101.92057 
L 657.336198 110.536873 
L 658.609587 114.056348 
L 659.882975 122.299495 
L 661.156364 112.532207 
L 662.429752 108.995526 
L 663.70314 104.385841 
L 664.976529 111.591137 
L 666.249917 103.329567 
L 667.523306 101.802495 
L 668.796694 104.790007 
L 670.070083 103.792691 
L 671.343471 102.772539 
L 672.61686 108.422202 
L 673.890248 114.062066 
L 675.163636 111.381305 
" style="fill:none;opacity:0.6;stroke:#f86942;stroke-linecap:square;"/>
   </g>
   <g id="line2d_30">
    <path clip-path="url(#p5c29ad25e4)" d="M 549.098182 129.450944 
L 550.37157 128.652718 
L 551.644959 119.377587 
L 552.918347 116.207678 
L 554.191736 114.34071 
L 555.465124 117.17938 
L 556.738512 124.737148 
L 558.011901 115.503513 
L 559.285289 111.878573 
L 560.558678 116.868823 
L 561.832066 124.670306 
L 563.105455 126.031578 
L 564.378843 125.87601 
L 565.652231 120.613356 
L 566.92562 118.146532 
L 568.199008 118.912952 
L 569.472397 113.86162 
L 570.745785 102.57959 
L 572.019174 103.209872 
L 573.292562 102.021684 
L 574.56595 103.335983 
L 575.839339 104.302278 
L 577.112727 105.033339 
L 578.386116 100.045666 
L 579.659504 92.030895 
L 580.932893 95.517528 
L 582.206281 99.207388 
L 583.479669 96.842564 
L 584.753058 101.432487 
L 586.026446 114.654759 
L 587.299835 118.35087 
L 588.573223 125.741007 
L 589.846612 122.134258 
L 591.12 125.722743 
L 592.393388 120.435493 
L 593.666777 117.785853 
L 594.940165 117.153075 
L 596.213554 119.633797 
L 597.486942 126.776229 
L 598.760331 133.474554 
L 600.033719 133.230499 
L 601.307107 133.991326 
L 602.580496 137.124249 
L 603.853884 137.918571 
L 605.127273 139.908718 
L 606.400661 133.21915 
L 607.67405 131.669175 
L 608.947438 138.119797 
L 610.220826 141.683617 
L 611.494215 149.266784 
L 612.767603 144.67378 
L 614.040992 156.304156 
L 615.31438 158.030501 
L 616.587769 165.083467 
L 617.861157 166.907204 
L 619.134545 168.778852 
L 620.407934 166.332413 
L 621.681322 155.44478 
L 622.954711 157.040224 
L 624.228099 148.261395 
L 625.501488 147.853644 
L 626.774876 156.898127 
L 628.048264 157.496924 
L 629.321653 163.232753 
L 630.595041 156.158063 
L 631.86843 143.933472 
L 633.141818 140.236119 
L 634.415207 134.105453 
L 635.688595 134.889984 
L 636.961983 141.373222 
L 638.235372 133.973614 
L 639.50876 128.458227 
L 640.782149 139.010663 
L 642.055537 142.147189 
L 643.328926 155.423264 
L 644.602314 147.943883 
L 645.875702 155.538226 
L 647.149091 148.481631 
L 648.422479 145.03212 
L 649.695868 150.135894 
L 650.969256 152.728332 
L 652.242645 155.014223 
L 653.516033 154.512813 
L 654.789421 149.255592 
L 656.06281 145.725088 
L 657.336198 141.136776 
L 658.609587 148.154347 
L 659.882975 143.901022 
L 661.156364 138.550228 
L 662.429752 138.105539 
L 663.70314 141.819914 
L 664.976529 132.547246 
L 666.249917 126.421459 
L 667.523306 126.661146 
L 668.796694 123.391177 
L 670.070083 117.799043 
L 671.343471 116.744428 
L 672.61686 113.559261 
L 673.890248 119.26641 
L 675.163636 117.919634 
" style="fill:none;opacity:0.6;stroke:#f86942;stroke-linecap:square;"/>
   </g>
   <g id="line2d_31">
    <path clip-path="url(#p5c29ad25e4)" d="M 549.098182 129.450944 
L 550.37157 124.847356 
L 551.644959 133.552977 
L 552.918347 135.074151 
L 554.191736 134.625177 
L 555.465124 137.047185 
L 556.738512 131.939828 
L 558.011901 135.076222 
L 559.285289 133.267858 
L 560.558678 127.832698 
L 561.832066 127.122775 
L 563.105455 124.794507 
L 564.378843 134.182064 
L 565.652231 143.763504 
L 566.92562 146.561168 
L 568.199008 140.46606 
L 569.472397 140.564649 
L 570.745785 135.235776 
L 572.019174 139.313178 
L 573.292562 133.176723 
L 574.56595 136.038902 
L 575.839339 136.322243 
L 577.112727 136.51293 
L 578.386116 142.046972 
L 579.659504 145.217474 
L 580.932893 137.025225 
L 582.206281 135.19936 
L 583.479669 144.512008 
L 584.753058 138.553193 
L 586.026446 142.515322 
L 587.299835 144.702879 
L 588.573223 150.766037 
L 589.846612 148.638801 
L 591.12 145.011826 
L 592.393388 147.819479 
L 593.666777 149.69775 
L 594.940165 149.054805 
L 596.213554 153.314504 
L 597.486942 140.669612 
L 598.760331 148.035389 
L 600.033719 142.646643 
L 601.307107 131.999294 
L 602.580496 136.215517 
L 603.853884 144.018236 
L 605.127273 147.069839 
L 606.400661 152.242181 
L 607.67405 160.081102 
L 608.947438 165.254491 
L 610.220826 163.800802 
L 611.494215 160.648471 
L 612.767603 163.686106 
L 614.040992 155.568454 
L 615.31438 158.153599 
L 616.587769 157.703077 
L 617.861157 160.748169 
L 619.134545 156.180968 
L 620.407934 155.494749 
L 621.681322 160.721637 
L 622.954711 155.714559 
L 624.228099 157.688318 
L 625.501488 162.402107 
L 626.774876 154.732385 
L 628.048264 146.774984 
L 629.321653 143.303208 
L 630.595041 136.116085 
L 631.86843 139.590729 
L 633.141818 144.724808 
L 634.415207 147.852046 
L 635.688595 138.181013 
L 636.961983 124.546535 
L 638.235372 114.2852 
L 639.50876 116.573479 
L 640.782149 119.224835 
L 642.055537 119.784259 
L 643.328926 122.818549 
L 644.602314 119.152112 
L 645.875702 121.231591 
L 647.149091 121.667364 
L 648.422479 119.553068 
L 649.695868 114.620807 
L 650.969256 122.259768 
L 652.242645 119.468248 
L 653.516033 124.522086 
L 654.789421 125.341307 
L 656.06281 127.288216 
L 657.336198 122.706868 
L 658.609587 124.948731 
L 659.882975 121.888672 
L 661.156364 126.377133 
L 662.429752 131.968029 
L 663.70314 131.423756 
L 664.976529 130.833949 
L 666.249917 127.817748 
L 667.523306 119.413932 
L 668.796694 119.172612 
L 670.070083 120.434291 
L 671.343471 118.17943 
L 672.61686 110.094011 
L 673.890248 115.369752 
L 675.163636 123.233651 
" style="fill:none;opacity:0.6;stroke:#f86942;stroke-linecap:square;"/>
   </g>
   <g id="line2d_32">
    <path clip-path="url(#p5c29ad25e4)" d="M 549.098182 129.450944 
L 550.37157 130.375816 
L 551.644959 133.265659 
L 552.918347 136.281744 
L 554.191736 125.895797 
L 555.465124 125.22441 
L 556.738512 133.73975 
L 558.011901 136.404803 
L 559.285289 139.8878 
L 560.558678 136.022672 
L 561.832066 132.733065 
L 563.105455 135.942219 
L 564.378843 137.753688 
L 565.652231 132.449193 
L 566.92562 135.730936 
L 568.199008 135.061802 
L 569.472397 138.027868 
L 570.745785 133.465272 
L 572.019174 130.210306 
L 573.292562 128.351385 
L 574.56595 134.249779 
L 575.839339 136.115216 
L 577.112727 134.736149 
L 578.386116 135.559389 
L 579.659504 141.687652 
L 580.932893 139.940849 
L 582.206281 136.4704 
L 583.479669 143.122641 
L 584.753058 145.034012 
L 586.026446 149.891115 
L 587.299835 156.795827 
L 588.573223 152.445388 
L 589.846612 148.035226 
L 591.12 152.234541 
L 592.393388 160.078067 
L 593.666777 151.611007 
L 594.940165 155.417519 
L 596.213554 158.963791 
L 597.486942 152.879716 
L 598.760331 163.725767 
L 600.033719 167.120913 
L 601.307107 174.206051 
L 602.580496 166.877277 
L 603.853884 159.392659 
L 605.127273 162.757446 
L 606.400661 154.088699 
L 607.67405 148.63456 
L 608.947438 146.05512 
L 610.220826 141.662478 
L 611.494215 147.32845 
L 612.767603 153.907108 
L 614.040992 146.031462 
L 615.31438 141.377126 
L 616.587769 142.801905 
L 617.861157 143.989887 
L 619.134545 141.830394 
L 620.407934 140.084194 
L 621.681322 136.911109 
L 622.954711 130.315603 
L 624.228099 135.203543 
L 625.501488 134.621873 
L 626.774876 130.671877 
L 628.048264 128.523418 
L 629.321653 118.582273 
L 630.595041 118.898613 
L 631.86843 118.614724 
L 633.141818 112.602305 
L 634.415207 118.12891 
L 635.688595 124.279003 
L 636.961983 117.966693 
L 638.235372 115.943062 
L 639.50876 117.874203 
L 640.782149 112.620402 
L 642.055537 121.282585 
L 643.328926 121.376389 
L 644.602314 125.272869 
L 645.875702 121.968772 
L 647.149091 121.589087 
L 648.422479 123.585108 
L 649.695868 123.251736 
L 650.969256 121.55982 
L 652.242645 133.824543 
L 653.516033 137.244041 
L 654.789421 138.114194 
L 656.06281 124.495591 
L 657.336198 133.074128 
L 658.609587 128.679708 
L 659.882975 134.525734 
L 661.156364 131.895837 
L 662.429752 130.715787 
L 663.70314 127.792427 
L 664.976529 132.330161 
L 666.249917 131.337004 
L 667.523306 133.302379 
L 668.796694 138.432404 
L 670.070083 135.380814 
L 671.343471 130.061436 
L 672.61686 136.656141 
L 673.890248 138.081173 
L 675.163636 137.988312 
" style="fill:none;opacity:0.6;stroke:#f86942;stroke-linecap:square;"/>
   </g>
   <g id="line2d_33">
    <path clip-path="url(#p5c29ad25e4)" d="M 549.098182 129.450944 
L 550.37157 133.356934 
L 551.644959 133.844147 
L 552.918347 142.301471 
L 554.191736 139.666652 
L 555.465124 143.117145 
L 556.738512 141.068513 
L 558.011901 145.944873 
L 559.285289 148.806613 
L 560.558678 153.233889 
L 561.832066 158.706534 
L 563.105455 160.697692 
L 564.378843 169.47 
L 565.652231 165.635258 
L 566.92562 162.703311 
L 568.199008 157.86668 
L 569.472397 166.883034 
L 570.745785 171.559199 
L 572.019174 170.998205 
L 573.292562 180.975941 
L 574.56595 178.1766 
L 575.839339 177.936125 
L 577.112727 177.815788 
L 578.386116 171.472383 
L 579.659504 177.675969 
L 580.932893 181.687154 
L 582.206281 186.71295 
L 583.479669 197.044937 
L 584.753058 190.717721 
L 586.026446 194.175371 
L 587.299835 197.023543 
L 588.573223 192.812941 
L 589.846612 182.181427 
L 591.12 190.870347 
L 592.393388 192.648301 
L 593.666777 190.883937 
L 594.940165 191.631016 
L 596.213554 194.266248 
L 597.486942 181.464109 
L 598.760331 174.809885 
L 600.033719 172.291995 
L 601.307107 175.774219 
L 602.580496 174.239725 
L 603.853884 174.565874 
L 605.127273 178.097361 
L 606.400661 182.717419 
L 607.67405 190.148585 
L 608.947438 189.865791 
L 610.220826 197.036594 
L 611.494215 187.879076 
L 612.767603 192.96617 
L 614.040992 198.181274 
L 615.31438 193.132173 
L 616.587769 185.071924 
L 617.861157 179.846064 
L 619.134545 177.965288 
L 620.407934 171.279979 
L 621.681322 169.658224 
L 622.954711 176.019203 
L 624.228099 177.254587 
L 625.501488 176.295305 
L 626.774876 178.399684 
L 628.048264 177.109847 
L 629.321653 190.574682 
L 630.595041 185.865754 
L 631.86843 188.149276 
L 633.141818 185.42355 
L 634.415207 199.546204 
L 635.688595 206.397796 
L 636.961983 211.238409 
L 638.235372 213.355184 
L 639.50876 200.655717 
L 640.782149 198.563832 
L 642.055537 195.924976 
L 643.328926 196.350152 
L 644.602314 193.222207 
L 645.875702 187.849312 
L 647.149091 186.83116 
L 648.422479 182.691293 
L 649.695868 179.677771 
L 650.969256 173.384143 
L 652.242645 180.100449 
L 653.516033 175.743921 
L 654.789421 177.695012 
L 656.06281 182.281652 
L 657.336198 180.862029 
L 658.609587 184.039702 
L 659.882975 177.181996 
L 661.156364 174.234743 
L 662.429752 165.326144 
L 663.70314 164.525685 
L 664.976529 156.947032 
L 666.249917 162.726187 
L 667.523306 167.301063 
L 668.796694 170.404789 
L 670.070083 162.941042 
L 671.343471 169.44798 
L 672.61686 172.660889 
L 673.890248 170.256585 
L 675.163636 162.992396 
" style="fill:none;stroke:#3dabb2;stroke-linecap:square;stroke-width:2;"/>
   </g>
   <g id="line2d_34">
    <path clip-path="url(#p5c29ad25e4)" d="M 170.901818 331.527273 
L 170.901818 28.472727 
" style="fill:none;stroke:#ffffff;stroke-dasharray:3.7,1.6;stroke-dashoffset:0;"/>
   </g>
   <g id="line2d_35">
    <path clip-path="url(#p5c29ad25e4)" d="M 296.967273 331.527273 
L 296.967273 28.472727 
" style="fill:none;stroke:#ffffff;stroke-dasharray:3.7,1.6;stroke-dashoffset:0;"/>
   </g>
   <g id="line2d_36">
    <path clip-path="url(#p5c29ad25e4)" d="M 423.032727 331.527273 
L 423.032727 28.472727 
" style="fill:none;stroke:#ffffff;stroke-dasharray:3.7,1.6;stroke-dashoffset:0;"/>
   </g>
   <g id="line2d_37">
    <path clip-path="url(#p5c29ad25e4)" d="M 549.098182 331.527273 
L 549.098182 28.472727 
" style="fill:none;stroke:#ffffff;stroke-dasharray:3.7,1.6;stroke-dashoffset:0;"/>
   </g>
   <g id="line2d_38">
    <path clip-path="url(#p5c29ad25e4)" d="M 675.163636 331.527273 
L 675.163636 28.472727 
" style="fill:none;stroke:#ffffff;stroke-dasharray:3.7,1.6;stroke-dashoffset:0;"/>
   </g>
  </g>
 </g>
 <defs>
  <clipPath id="p5c29ad25e4">
   <rect height="333.36" width="693.36" x="13.32" y="13.32"/>
  </clipPath>
 </defs>
</svg>
