<?xml version="1.0" encoding="utf-8" standalone="no"?>
<!DOCTYPE svg PUBLIC "-//W3C//DTD SVG 1.1//EN"
  "http://www.w3.org/Graphics/SVG/1.1/DTD/svg11.dtd">
<!-- Created with matplotlib (http://matplotlib.org/) -->
<svg height="360pt" version="1.1" viewBox="0 0 720 360" width="720pt" xmlns="http://www.w3.org/2000/svg" xmlns:xlink="http://www.w3.org/1999/xlink">
 <defs>
  <style type="text/css">
*{stroke-linecap:butt;stroke-linejoin:round;}
  </style>
 </defs>
 <g id="figure_1">
  <g id="axes_1">
   <g id="line2d_1">
    <path clip-path="url(#p1366abf3f6)" d="M 44.836364 143.424451 
L 46.109752 146.913376 
L 47.38314 150.093388 
L 48.656529 153.512002 
L 49.929917 150.820303 
L 51.203306 149.442394 
L 52.476694 152.502552 
L 53.750083 145.316419 
L 55.023471 145.036159 
L 56.29686 137.208559 
L 57.570248 133.236572 
L 58.843636 130.770299 
L 60.117025 131.998931 
L 61.390413 130.141731 
L 62.663802 120.774801 
L 63.93719 122.614374 
L 65.210579 127.811421 
L 66.483967 131.142144 
L 67.757355 121.170982 
L 69.030744 110.686439 
L 70.304132 116.561032 
L 71.577521 105.111253 
L 72.850909 104.111035 
L 74.124298 97.485416 
L 75.397686 95.292118 
L 76.671074 90.597587 
L 77.944463 90.348906 
L 79.217851 93.543993 
L 80.49124 94.954247 
L 81.764628 98.453266 
L 83.038017 100.25981 
L 84.311405 96.021657 
L 85.584793 84.774177 
L 86.858182 87.376867 
L 88.13157 84.616534 
L 89.404959 86.662724 
L 90.678347 81.740604 
L 91.951736 86.030863 
L 93.225124 80.676453 
L 94.498512 82.469472 
L 95.771901 78.524192 
L 97.045289 80.426522 
L 98.318678 86.356043 
L 99.592066 88.192513 
L 100.865455 93.720803 
L 102.138843 86.987053 
L 103.412231 87.889272 
L 104.68562 84.855758 
L 105.959008 92.601443 
L 107.232397 92.187693 
L 108.505785 87.364734 
L 109.779174 89.952086 
L 111.052562 89.445523 
L 112.32595 92.873428 
L 113.599339 94.037991 
L 114.872727 99.647993 
L 116.146116 106.095097 
L 117.419504 115.540125 
L 118.692893 119.138424 
L 119.966281 126.542211 
L 121.239669 119.965364 
L 122.513058 117.499501 
L 123.786446 115.782704 
L 125.059835 106.285318 
L 126.333223 113.705905 
L 127.606612 100.455018 
L 128.88 98.631113 
L 130.153388 103.290993 
L 131.426777 108.855469 
L 132.700165 107.028236 
L 133.973554 115.213409 
L 135.246942 120.438769 
L 136.520331 106.674045 
L 137.793719 108.464176 
L 139.067107 109.315398 
L 140.340496 107.041753 
L 141.613884 107.06535 
L 142.887273 116.857751 
L 144.160661 120.049163 
L 145.43405 106.295086 
L 146.707438 102.810293 
L 147.980826 94.97723 
L 149.254215 95.962629 
L 150.527603 92.620098 
L 151.800992 84.125914 
L 153.07438 84.661424 
L 154.347769 86.321291 
L 155.621157 95.650134 
L 156.894545 92.70663 
L 158.167934 81.940426 
L 159.441322 81.174909 
L 160.714711 85.110782 
L 161.988099 86.739456 
L 163.261488 93.249517 
L 164.534876 96.366112 
L 165.808264 98.667133 
L 167.081653 97.189217 
L 168.355041 98.272159 
L 169.62843 89.505198 
L 170.901818 95.160354 
" style="fill:none;opacity:0.6;stroke:#3dabb2;stroke-linecap:square;"/>
   </g>
   <g id="line2d_2">
    <path clip-path="url(#p1366abf3f6)" d="M 44.836364 143.424451 
L 46.109752 141.847598 
L 47.38314 139.206019 
L 48.656529 144.959345 
L 49.929917 152.947467 
L 51.203306 151.707601 
L 52.476694 148.046597 
L 53.750083 149.074828 
L 55.023471 148.44523 
L 56.29686 144.433183 
L 57.570248 146.180082 
L 58.843636 146.05956 
L 60.117025 145.768454 
L 61.390413 143.863466 
L 62.663802 142.304582 
L 63.93719 134.916103 
L 65.210579 133.756161 
L 66.483967 128.557724 
L 67.757355 132.608656 
L 69.030744 130.201495 
L 70.304132 120.939991 
L 71.577521 124.357668 
L 72.850909 125.106967 
L 74.124298 130.012326 
L 75.397686 129.872815 
L 76.671074 136.545836 
L 77.944463 134.990338 
L 79.217851 127.8234 
L 80.49124 134.672676 
L 81.764628 132.645619 
L 83.038017 141.882755 
L 84.311405 144.773962 
L 85.584793 136.168882 
L 86.858182 137.816878 
L 88.13157 148.776111 
L 89.404959 143.310593 
L 90.678347 141.575394 
L 91.951736 143.278101 
L 93.225124 136.183691 
L 94.498512 133.698098 
L 95.771901 132.014516 
L 97.045289 126.326974 
L 98.318678 123.505623 
L 99.592066 116.654129 
L 100.865455 117.524728 
L 102.138843 124.323137 
L 103.412231 138.809704 
L 104.68562 126.912734 
L 105.959008 128.590395 
L 107.232397 126.813681 
L 108.505785 128.365221 
L 109.779174 119.67012 
L 111.052562 124.728838 
L 112.32595 125.825681 
L 113.599339 129.429173 
L 114.872727 130.863321 
L 116.146116 132.990504 
L 117.419504 131.904914 
L 118.692893 130.097011 
L 119.966281 137.302767 
L 121.239669 132.159224 
L 122.513058 138.96882 
L 123.786446 141.860487 
L 125.059835 135.960633 
L 126.333223 138.55545 
L 127.606612 131.620088 
L 128.88 133.268397 
L 130.153388 128.087934 
L 131.426777 124.301615 
L 132.700165 127.091303 
L 133.973554 126.799247 
L 135.246942 117.716502 
L 136.520331 123.960376 
L 137.793719 120.818413 
L 139.067107 116.603817 
L 140.340496 118.713676 
L 141.613884 119.254382 
L 142.887273 120.215218 
L 144.160661 120.67273 
L 145.43405 116.183611 
L 146.707438 114.909139 
L 147.980826 116.429943 
L 149.254215 118.210123 
L 150.527603 118.571462 
L 151.800992 120.880063 
L 153.07438 117.230255 
L 154.347769 122.137506 
L 155.621157 115.022813 
L 156.894545 112.518775 
L 158.167934 110.380293 
L 159.441322 98.022828 
L 160.714711 90.044585 
L 161.988099 91.601447 
L 163.261488 96.404563 
L 164.534876 94.133553 
L 165.808264 108.570221 
L 167.081653 110.279773 
L 168.355041 106.927551 
L 169.62843 100.103818 
L 170.901818 102.513356 
" style="fill:none;opacity:0.6;stroke:#3dabb2;stroke-linecap:square;"/>
   </g>
   <g id="line2d_3">
    <path clip-path="url(#p1366abf3f6)" d="M 44.836364 143.424451 
L 46.109752 150.015184 
L 47.38314 151.849857 
L 48.656529 150.584624 
L 49.929917 144.370048 
L 51.203306 141.39342 
L 52.476694 148.431798 
L 53.750083 142.232097 
L 55.023471 144.934409 
L 56.29686 139.002698 
L 57.570248 136.647091 
L 58.843636 141.953237 
L 60.117025 146.942293 
L 61.390413 143.620464 
L 62.663802 142.854977 
L 63.93719 148.232669 
L 65.210579 143.520959 
L 66.483967 144.118983 
L 67.757355 149.590771 
L 69.030744 146.000567 
L 70.304132 145.176271 
L 71.577521 138.313901 
L 72.850909 141.608411 
L 74.124298 135.889159 
L 75.397686 143.299839 
L 76.671074 143.187472 
L 77.944463 144.456247 
L 79.217851 140.673953 
L 80.49124 142.215717 
L 81.764628 143.029334 
L 83.038017 139.934991 
L 84.311405 135.426156 
L 85.584793 136.605142 
L 86.858182 137.310881 
L 88.13157 140.601448 
L 89.404959 144.232572 
L 90.678347 138.956375 
L 91.951736 133.784901 
L 93.225124 132.636336 
L 94.498512 131.32221 
L 95.771901 126.365422 
L 97.045289 128.991796 
L 98.318678 128.131519 
L 99.592066 122.614084 
L 100.865455 128.440551 
L 102.138843 125.686913 
L 103.412231 128.512916 
L 104.68562 119.976516 
L 105.959008 119.486675 
L 107.232397 104.857499 
L 108.505785 113.947172 
L 109.779174 119.075081 
L 111.052562 115.66546 
L 112.32595 110.02693 
L 113.599339 106.732048 
L 114.872727 106.496428 
L 116.146116 104.28541 
L 117.419504 105.277725 
L 118.692893 108.067469 
L 119.966281 110.381517 
L 121.239669 112.276053 
L 122.513058 113.938003 
L 123.786446 113.186473 
L 125.059835 112.808764 
L 126.333223 121.706687 
L 127.606612 110.250484 
L 128.88 115.95205 
L 130.153388 117.454289 
L 131.426777 120.317955 
L 132.700165 118.222591 
L 133.973554 109.116274 
L 135.246942 107.656523 
L 136.520331 101.504029 
L 137.793719 99.226392 
L 139.067107 105.446461 
L 140.340496 105.216399 
L 141.613884 99.914 
L 142.887273 99.420218 
L 144.160661 87.108296 
L 145.43405 88.024093 
L 146.707438 83.696666 
L 147.980826 94.594374 
L 149.254215 92.137998 
L 150.527603 90.193719 
L 151.800992 94.616997 
L 153.07438 93.763174 
L 154.347769 90.463361 
L 155.621157 92.765918 
L 156.894545 89.968333 
L 158.167934 92.435754 
L 159.441322 94.27444 
L 160.714711 98.566031 
L 161.988099 97.72273 
L 163.261488 96.196206 
L 164.534876 98.35373 
L 165.808264 100.468726 
L 167.081653 99.276198 
L 168.355041 92.798038 
L 169.62843 96.177749 
L 170.901818 95.590431 
" style="fill:none;opacity:0.6;stroke:#3dabb2;stroke-linecap:square;"/>
   </g>
   <g id="line2d_4">
    <path clip-path="url(#p1366abf3f6)" d="M 44.836364 143.424451 
L 46.109752 149.145554 
L 47.38314 153.465021 
L 48.656529 148.628112 
L 49.929917 153.490915 
L 51.203306 139.617503 
L 52.476694 149.829435 
L 53.750083 140.072804 
L 55.023471 134.309299 
L 56.29686 129.192819 
L 57.570248 130.533161 
L 58.843636 120.010375 
L 60.117025 118.771887 
L 61.390413 123.108133 
L 62.663802 120.461118 
L 63.93719 116.636886 
L 65.210579 119.152247 
L 66.483967 120.190851 
L 67.757355 119.839883 
L 69.030744 122.586291 
L 70.304132 125.213022 
L 71.577521 129.051038 
L 72.850909 130.767998 
L 74.124298 124.400712 
L 75.397686 128.775882 
L 76.671074 132.877392 
L 77.944463 129.180885 
L 79.217851 123.285801 
L 80.49124 119.221517 
L 81.764628 116.846961 
L 83.038017 131.04366 
L 84.311405 125.573991 
L 85.584793 115.039487 
L 86.858182 111.314275 
L 88.13157 109.939423 
L 89.404959 108.928081 
L 90.678347 113.037722 
L 91.951736 115.190659 
L 93.225124 114.267206 
L 94.498512 105.631683 
L 95.771901 107.465133 
L 97.045289 100.015084 
L 98.318678 99.302842 
L 99.592066 92.841935 
L 100.865455 85.878944 
L 102.138843 87.239268 
L 103.412231 86.425664 
L 104.68562 82.037415 
L 105.959008 77.017369 
L 107.232397 83.924539 
L 108.505785 83.615749 
L 109.779174 71.701992 
L 111.052562 70.766658 
L 112.32595 67.248793 
L 113.599339 68.294704 
L 114.872727 62.010751 
L 116.146116 59.017038 
L 117.419504 53.028199 
L 118.692893 62.69342 
L 119.966281 62.614695 
L 121.239669 69.785661 
L 122.513058 62.340307 
L 123.786446 54.066203 
L 125.059835 52.817873 
L 126.333223 41.191956 
L 127.606612 40.342414 
L 128.88 45.316562 
L 130.153388 50.403789 
L 131.426777 50.683798 
L 132.700165 56.183716 
L 133.973554 59.250138 
L 135.246942 66.719933 
L 136.520331 64.719534 
L 137.793719 67.164993 
L 139.067107 72.43574 
L 140.340496 66.633853 
L 141.613884 73.166831 
L 142.887273 76.789948 
L 144.160661 73.405456 
L 145.43405 72.498338 
L 146.707438 69.367136 
L 147.980826 59.846839 
L 149.254215 58.813213 
L 150.527603 67.808284 
L 151.800992 71.070999 
L 153.07438 66.224743 
L 154.347769 59.795533 
L 155.621157 61.079504 
L 156.894545 61.046335 
L 158.167934 62.775059 
L 159.441322 65.349499 
L 160.714711 65.46144 
L 161.988099 64.712213 
L 163.261488 68.059222 
L 164.534876 69.186398 
L 165.808264 64.23569 
L 167.081653 72.509682 
L 168.355041 76.358156 
L 169.62843 74.434579 
L 170.901818 68.796785 
" style="fill:none;opacity:0.6;stroke:#3dabb2;stroke-linecap:square;"/>
   </g>
   <g id="line2d_5">
    <path clip-path="url(#p1366abf3f6)" d="M 44.836364 143.424451 
L 46.109752 145.472281 
L 47.38314 148.185674 
L 48.656529 146.883177 
L 49.929917 145.591498 
L 51.203306 142.297144 
L 52.476694 145.260264 
L 53.750083 133.193716 
L 55.023471 129.265063 
L 56.29686 117.638677 
L 57.570248 115.651123 
L 58.843636 120.426601 
L 60.117025 117.663363 
L 61.390413 123.428142 
L 62.663802 118.221861 
L 63.93719 117.618326 
L 65.210579 120.88395 
L 66.483967 126.281901 
L 67.757355 132.502335 
L 69.030744 136.471066 
L 70.304132 138.000521 
L 71.577521 142.297669 
L 72.850909 143.334278 
L 74.124298 134.405383 
L 75.397686 134.2271 
L 76.671074 134.15364 
L 77.944463 132.385524 
L 79.217851 126.407886 
L 80.49124 123.240792 
L 81.764628 115.456495 
L 83.038017 115.153572 
L 84.311405 119.171289 
L 85.584793 120.887503 
L 86.858182 121.656637 
L 88.13157 119.930995 
L 89.404959 123.5565 
L 90.678347 127.810392 
L 91.951736 128.875185 
L 93.225124 133.256571 
L 94.498512 128.864736 
L 95.771901 122.018804 
L 97.045289 126.286304 
L 98.318678 130.187325 
L 99.592066 124.290325 
L 100.865455 124.357964 
L 102.138843 117.448571 
L 103.412231 113.808782 
L 104.68562 124.488106 
L 105.959008 131.217195 
L 107.232397 135.476151 
L 108.505785 128.037616 
L 109.779174 132.304721 
L 111.052562 131.769746 
L 112.32595 140.070087 
L 113.599339 136.49822 
L 114.872727 141.056297 
L 116.146116 135.563036 
L 117.419504 139.650571 
L 118.692893 135.80358 
L 119.966281 140.662805 
L 121.239669 143.923023 
L 122.513058 151.467751 
L 123.786446 150.196056 
L 125.059835 150.636808 
L 126.333223 142.624703 
L 127.606612 148.168252 
L 128.88 145.843751 
L 130.153388 144.806941 
L 131.426777 142.781013 
L 132.700165 140.257371 
L 133.973554 144.152701 
L 135.246942 141.815499 
L 136.520331 144.038739 
L 137.793719 151.891801 
L 139.067107 150.543054 
L 140.340496 147.632658 
L 141.613884 154.16514 
L 142.887273 161.664958 
L 144.160661 156.58392 
L 145.43405 158.283062 
L 146.707438 151.641946 
L 147.980826 154.746107 
L 149.254215 150.596492 
L 150.527603 160.938131 
L 151.800992 164.171971 
L 153.07438 169.381568 
L 154.347769 166.348919 
L 155.621157 170.276553 
L 156.894545 168.65731 
L 158.167934 174.514329 
L 159.441322 180.310044 
L 160.714711 182.196814 
L 161.988099 172.908857 
L 163.261488 170.755037 
L 164.534876 175.871179 
L 165.808264 170.793536 
L 167.081653 173.461066 
L 168.355041 176.516956 
L 169.62843 172.69119 
L 170.901818 176.13144 
" style="fill:none;opacity:0.6;stroke:#3dabb2;stroke-linecap:square;"/>
   </g>
   <g id="line2d_6">
    <defs>
     <path d="M 0 7.5 
C 1.989023 7.5 3.896849 6.709753 5.303301 5.303301 
C 6.709753 3.896849 7.5 1.989023 7.5 0 
C 7.5 -1.989023 6.709753 -3.896849 5.303301 -5.303301 
C 3.896849 -6.709753 1.989023 -7.5 0 -7.5 
C -1.989023 -7.5 -3.896849 -6.709753 -5.303301 -5.303301 
C -6.709753 -3.896849 -7.5 -1.989023 -7.5 0 
C -7.5 1.989023 -6.709753 3.896849 -5.303301 5.303301 
C -3.896849 6.709753 -1.989023 7.5 0 7.5 
z
" id="m6be7fec6bf" style="stroke:#3dabb2;"/>
    </defs>
    <g clip-path="url(#p1366abf3f6)">
     <use style="fill:#3dabb2;stroke:#3dabb2;" x="675.163636" xlink:href="#m6be7fec6bf" y="159.099687"/>
    </g>
   </g>
   <g id="line2d_7">
    <path clip-path="url(#p1366abf3f6)" d="M 170.901818 331.527273 
L 170.901818 28.472727 
" style="fill:none;stroke:#ffffff;stroke-dasharray:3.7,1.6;stroke-dashoffset:0;"/>
   </g>
   <g id="text_1">
    <!-- ? -->
    <defs>
     <path d="M 19.09375 12.40625 
L 29 12.40625 
L 29 0 
L 19.09375 0 
z
M 28.71875 19.578125 
L 19.390625 19.578125 
L 19.390625 27.09375 
Q 19.390625 32.03125 20.75 35.203125 
Q 22.125 38.375 26.515625 42.578125 
L 30.90625 46.921875 
Q 33.6875 49.515625 34.9375 51.8125 
Q 36.1875 54.109375 36.1875 56.5 
Q 36.1875 60.84375 32.984375 63.53125 
Q 29.78125 66.21875 24.515625 66.21875 
Q 20.65625 66.21875 16.28125 64.5 
Q 11.921875 62.796875 7.171875 59.515625 
L 7.171875 68.703125 
Q 11.765625 71.484375 16.46875 72.84375 
Q 21.1875 74.21875 26.21875 74.21875 
Q 35.203125 74.21875 40.640625 69.484375 
Q 46.09375 64.75 46.09375 56.984375 
Q 46.09375 53.265625 44.328125 49.921875 
Q 42.578125 46.578125 38.1875 42.390625 
L 33.890625 38.1875 
Q 31.59375 35.890625 30.640625 34.59375 
Q 29.6875 33.296875 29.296875 32.078125 
Q 29 31.0625 28.859375 29.59375 
Q 28.71875 28.125 28.71875 25.59375 
z
" id="DejaVuSans-3f"/>
    </defs>
    <g style="fill:#f86942;" transform="translate(338.76875 139.37406)scale(0.8 -0.8)">
     <use xlink:href="#DejaVuSans-3f"/>
    </g>
   </g>
  </g>
 </g>
 <defs>
  <clipPath id="p1366abf3f6">
   <rect height="333.36" width="693.36" x="13.32" y="13.32"/>
  </clipPath>
 </defs>
</svg>
